<?xml version="1.0" encoding="utf-8"?>
<!-- Generator: Adobe Illustrator 25.2.1, SVG Export Plug-In . SVG Version: 6.00 Build 0)  -->
<svg version="1.1" xmlns="http://www.w3.org/2000/svg" xmlns:xlink="http://www.w3.org/1999/xlink" x="0px" y="0px"
	 viewBox="0 0 841.89 595.28" style="enable-background:new 0 0 841.89 595.28;" xml:space="preserve">
<style type="text/css">
	.st0{fill:#231F20;}
	.st1{display:none;fill:#231F20;}
	.st2{display:none;}
	.st3{display:inline;fill:#231F20;stroke:#FCFDFF;stroke-miterlimit:10;}
	.st4{display:inline;}
	.st5{fill:#FCFDFF;}
	.st6{display:inline;fill:none;stroke:#231F20;stroke-width:16;stroke-miterlimit:10;}
	.st7{fill:#FFFFFF;}
	.st8{display:inline;fill:none;stroke:#FFFFFF;stroke-width:0.5;stroke-miterlimit:10;}
	.st9{display:inline;fill:none;stroke:#000000;stroke-width:12;stroke-miterlimit:10;}
	.st10{fill:#9EB54D;}
	.st11{display:none;fill:none;stroke:#FFFFFF;stroke-width:0.5;stroke-miterlimit:10;}
	.st12{display:none;fill:none;stroke:#000000;stroke-width:12;stroke-miterlimit:10;}
	.st13{fill:#231F20;stroke:#231F20;stroke-miterlimit:10;}
</style>
<g id="Layer_9">
</g>
<g id="Layer_1">
	<path class="st0" d="M149.55,294.66v-83.32c0-9.37,3.58-16.92,10.74-22.65c7.16-5.73,16.52-8.6,28.09-8.6
		c11.71,0,21.15,2.87,28.31,8.6c7.16,5.73,10.74,13.28,10.74,22.65v83.32c0,1.98-1.3,2.98-3.9,2.98H204c-2.6,0-3.91-0.99-3.91-2.98
		v-32.57h-23.43v32.57c0,1.98-1.23,2.98-3.69,2.98h-19.53C150.85,297.64,149.55,296.65,149.55,294.66z M200.09,243.08v-33.23
		c0-3.2-1.05-5.73-3.15-7.6c-2.1-1.87-4.96-2.81-8.57-2.81c-3.62,0-6.47,0.94-8.57,2.81c-2.1,1.88-3.15,4.41-3.15,7.6v33.23H200.09z
		"/>
	<path class="st0" d="M312.69,260.19c2.75,3.91,4.12,8.46,4.12,13.64v20.83c0,1.98-1.23,2.98-3.69,2.98H294.9
		c-2.46,0-3.69-0.99-3.69-2.98v-21.99c0-2.42-0.94-4.38-2.82-5.87c-1.88-1.49-4.41-2.23-7.59-2.23h-8.68v30.09
		c0,1.98-1.3,2.98-3.91,2.98h-17.79c-2.6,0-3.9-0.99-3.9-2.98V184.72c0-1.87,1.3-2.81,3.9-2.81h17.79c2.6,0,3.91,0.94,3.91,2.81
		v61.5h5.64l14.75-28.93c0.58-1.54,2.02-2.31,4.34-2.31h18.44c1.44,0,2.5,0.31,3.15,0.91c0.65,0.61,0.68,1.4,0.11,2.4l-17.36,32.57
		C306.1,253.17,309.94,256.28,312.69,260.19z"/>
	<path class="st1" d="M375.39,294.66v-53.73c0-8.27,3.25-14.99,9.76-20.17c6.51-5.18,15.04-7.77,25.6-7.77
		c10.56,0,19.09,2.59,25.6,7.77c6.51,5.18,9.76,11.9,9.76,20.17v53.73c0,1.98-1.23,2.98-3.69,2.98h-18.01
		c-2.6,0-3.91-0.99-3.91-2.98v-54.72c0-2.53-0.87-4.6-2.6-6.2c-1.74-1.6-4.12-2.4-7.16-2.4s-5.46,0.77-7.27,2.31
		c-1.81,1.54-2.71,3.64-2.71,6.28v54.72c0,1.98-1.23,2.98-3.69,2.98h-18.01C376.61,297.64,375.39,296.65,375.39,294.66z"/>
	<path class="st0" d="M642.55,290.86c-6.65-5.18-9.98-11.96-9.98-20.33v-30.58c0-8.27,3.33-14.99,9.98-20.17
		c6.65-5.18,15.4-7.77,26.25-7.77c10.85,0,19.6,2.59,26.25,7.77c6.65,5.18,9.98,11.9,9.98,20.17v30.58c0,8.38-3.33,15.16-9.98,20.33
		c-6.65,5.18-15.4,7.77-26.25,7.77C657.95,298.63,649.2,296.04,642.55,290.86z M676.39,277.8c1.88-1.54,2.82-3.58,2.82-6.12v-32.73
		c0-2.65-0.94-4.74-2.82-6.28c-1.88-1.54-4.41-2.31-7.59-2.31c-3.18,0-5.72,0.77-7.59,2.31c-1.88,1.54-2.82,3.64-2.82,6.28v32.73
		c0,2.54,0.94,4.57,2.82,6.12c1.88,1.54,4.41,2.31,7.59,2.31C671.98,280.11,674.51,279.34,676.39,277.8z"/>
	<g id="Layer_3" class="st2">
		<path class="st3" d="M498.13,143.94"/>
		<g class="st4">
			<g>
				<path class="st5" d="M402,134.56c3.22,0,3.22-5,0-5C398.78,129.56,398.78,134.56,402,134.56L402,134.56z"/>
			</g>
		</g>
		<path class="st6" d="M486,158.85c4.91,0.9,9.23-3.36,8.64-8.32c-1.92-16.12-13.65-30.23-30.75-34.14
			c-19.56-4.47-39.68,6.63-46.35,25.54c-6.66,18.9,1.71,39.09,18.39,48.22C437.61,177.64,479.06,157.57,486,158.85z"/>
		<path class="st3" d="M498.13,136.36"/>
		<g class="st4">
			<g>
				<path class="st5" d="M402,126.99c3.22,0,3.22-5,0-5C398.78,121.99,398.78,126.99,402,126.99L402,126.99z"/>
			</g>
		</g>
		<g class="st4">
			<g>
				<path class="st7" d="M437.31,168.51c-0.72,0.16-1.22-0.01-1.82-0.39c-1.26-0.79-3.4-0.09-3.67,1.49
					c-0.55,3.22,1.05,5.75,3.63,7.56c2.17,1.51,4.83,1.86,7.11,3.13c2.46,1.37,2.16,4.37,2.43,6.86c0.39,3.52,0.77,7.05,1.16,10.57
					c0.15,1.34,1.04,2.5,2.5,2.5c1.24,0,2.65-1.15,2.5-2.5c-0.38-3.44-0.76-6.89-1.14-10.33c-0.35-3.17-0.25-6.77-2.38-9.35
					c-1.69-2.05-4.31-2.94-6.73-3.79c-1.25-0.44-4.54-1.68-4.26-3.32c-1.22,0.5-2.45,1-3.67,1.49c1.73,1.09,3.7,1.34,5.67,0.89
					C441.77,172.62,440.45,167.8,437.31,168.51L437.31,168.51z"/>
			</g>
		</g>
		<g class="st4">
			<g>
				<path class="st7" d="M437.81,171.19c4.27,3.98,8.54,7.96,12.81,11.94c1.01-1.31,2.02-2.62,3.03-3.93
					c-5.14-3.65-10.2-7.4-15.17-11.27c-1.06-0.83-2.5-1.04-3.54,0c-1.01,1.01-0.89,2.52,0,3.54c5.21,5.96,10.66,11.7,16.35,17.2
					c2.01,1.94,5.43-0.55,3.93-3.03c-4.07-6.7-9.78-12.3-16.57-16.21c-2.13-1.23-4.74,1.26-3.42,3.42
					c3.92,6.44,9.32,11.85,15.74,15.79c2.07,1.27,4.82-1.31,3.42-3.42c-4.93-7.41-10.74-14.2-17.34-20.18
					c-2.41-2.18-5.63,1.1-3.54,3.54c7.65,8.89,15.66,17.77,26.7,22.39c2.03,0.85,3.94-1.96,2.82-3.67
					c-6.55-10.02-14.44-19.13-23.47-27c-2.07-1.8-5.42,0.47-3.93,3.03c6.32,10.79,15.07,20,25.49,26.92
					c1.01,0.67,2.18,0.28,3.03-0.39c3.23-2.54-0.23-6.55-1.93-8.73c-2.27-2.91-4.6-5.79-6.97-8.62c-4.75-5.67-9.7-11.16-14.83-16.48
					c-1.92-1.99-5.64,0.69-3.93,3.03c8.22,11.24,17.82,21.39,28.67,30.12c0.97,0.78,2.24,1.03,3.28,0.2
					c0.93-0.74,1.34-2.17,0.64-3.23c-7.94-12.07-18.28-22.24-28.98-31.84c-2-1.79-5.63,0.57-3.93,3.03
					c4.11,5.93,8.58,11.62,13.39,17c2.36,2.64,4.8,5.2,7.32,7.69c2.55,2.51,5.12,5.02,8.87,5.29c2.11,0.15,2.82-2.19,2.16-3.76
					c-2.52-5.97-7.36-10.71-11.59-15.5c-4.7-5.32-9.41-10.65-14.11-15.97c-0.89-1.01-2.62-0.91-3.54,0c-1.05,1.05-0.83,2.47,0,3.54
					c8.59,11.01,18.48,20.96,29.44,29.6c0.98,0.77,2.23,1.03,3.28,0.2c0.9-0.72,1.37-2.19,0.64-3.23
					c-8.33-11.85-18.29-22.38-28.25-32.84c-1.18,1.18-2.36,2.36-3.54,3.54c10.56,10.06,20.96,20.28,31.35,30.5
					c2.32,2.29,5.61-1.12,3.54-3.54c-8.7-10.13-17.39-20.26-26.09-30.4c-1.18,1.18-2.36,2.36-3.54,3.54
					c8.87,8.49,17.73,16.98,26.6,25.47c2.35,2.25,5.62-1.12,3.54-3.54c-8.16-9.48-16.33-18.96-24.49-28.44
					c-1.01,1.31-2.02,2.62-3.03,3.93c10.95,7.4,19.93,17.22,28.81,26.91c1.18-1.18,2.36-2.36,3.54-3.54
					c-4.46-4.83-8.92-9.66-13.38-14.49c-2.18-2.36-4.37-4.72-6.55-7.09c-1.74-1.89-3.58-3.87-4.5-6.31
					c-1.39,0.81-2.79,1.62-4.18,2.43c8.89,6.87,16.94,14.85,23.77,23.77c1.31-1.01,2.62-2.02,3.93-3.03
					c-7.44-6.97-14.97-14-20.97-22.29c-1.31,1.01-2.62,2.02-3.93,3.03c9.81,8.44,19.07,17.49,27.74,27.09c0.91,1,2.62,0.92,3.54,0
					c1.05-1.05,0.84-2.47,0-3.54c-4.02-5.1-8.04-10.21-12.07-15.31c-1.99-2.52-3.97-5.04-5.96-7.56c-0.89-1.13-1.92-2.23-2.69-3.45
					c-0.23-0.37-0.3-0.52-0.43-0.9c-0.04-0.14-0.08-0.28-0.1-0.42c0.01,0.04,0.02,0.08,0.03,0.13c0.42,0.12-2.02,1.39-0.88,0.92
					c-0.81-0.21-1.62-0.43-2.43-0.64c7.51,7.56,13.98,16.04,19.3,25.28c1.31-1.01,2.62-2.02,3.93-3.03
					c-6.6-7.4-11.94-15.83-15.9-24.92c-1.44,0.84-2.88,1.68-4.32,2.52c5.42,7.54,10.68,15.18,15.79,22.93
					c1.31-1.01,2.62-2.02,3.93-3.03c-5.36-6.29-9.6-13.56-12.44-21.32c-1.39,0.81-2.79,1.62-4.18,2.43
					c5.77,5.76,10.46,12.42,13.99,19.77c1.31-1.01,2.62-2.02,3.93-3.03c-5.76-5.53-9.8-12.53-11.71-20.28
					c-1.39,0.81-2.79,1.62-4.18,2.43c4.9,5.86,8.86,12.56,11.63,19.68c1.52-0.64,3.05-1.28,4.57-1.93
					c-3.31-5.42-6.08-11.13-8.22-17.12c-1.39,0.81-2.79,1.62-4.18,2.43c3.66,4.69,6.72,9.84,9.21,15.24
					c1.44-0.84,2.88-1.68,4.32-2.52c-2.87-5.78-5.74-11.56-8.61-17.34c-1.44,0.84-2.88,1.68-4.32,2.52
					c4.91,6.6,8.34,14.08,10.11,22.11c1.61-0.44,3.21-0.89,4.82-1.33c-2.16-7.69-5.05-15.17-8.6-22.33
					c-1.44,0.84-2.88,1.68-4.32,2.52c3.99,6.62,6.92,13.76,8.75,21.27c0.76,3.13,5.56,1.8,4.82-1.33
					c-1.92-8.1-4.66-15.96-8.11-23.54c-1.44,0.84-2.88,1.68-4.32,2.52c4.57,7.76,8.01,16.08,10.26,24.81
					c1.61-0.44,3.21-0.89,4.82-1.33c-3.04-8.97-7.1-17.59-12.13-25.62c-1.31,1.01-2.62,2.02-3.93,3.03
					c5.49,6.39,9.15,14.13,10.79,22.38c1.61-0.44,3.21-0.89,4.82-1.33c-2.77-9.59-6.87-18.78-12.18-27.24
					c-1.44,0.84-2.88,1.68-4.32,2.52c5.52,8.21,9.81,17.14,12.7,26.61c1.52-0.64,3.05-1.28,4.57-1.93
					c-4.15-9.02-8.29-18.04-12.44-27.06c-1.44,0.84-2.88,1.68-4.32,2.52c5.12,7,9.29,14.67,12.27,22.81
					c1.52-0.64,3.05-1.28,4.57-1.93c-4.54-10.35-10.43-20-17.44-28.86c-0.84-1.06-2.66-0.88-3.54,0c-1.05,1.05-0.84,2.47,0,3.54
					c6.73,8.51,12.3,17.92,16.66,27.85c1.13,2.57,5.54,0.73,4.57-1.93c-3.13-8.56-7.39-16.65-12.77-24.01
					c-1.9-2.6-5.67-0.42-4.32,2.52c4.15,9.02,8.29,18.04,12.44,27.06c1.19,2.59,5.39,0.75,4.57-1.93
					c-3.01-9.85-7.45-19.25-13.21-27.8c-1.78-2.65-6.05-0.23-4.32,2.52c5.09,8.11,9.02,16.84,11.68,26.04
					c0.9,3.12,5.45,1.8,4.82-1.33c-1.81-9.1-6.04-17.55-12.08-24.58c-1.85-2.16-5.42,0.64-3.93,3.03
					c4.81,7.67,8.72,15.85,11.63,24.42c1.02,3.02,5.63,1.82,4.82-1.33c-2.35-9.12-5.99-17.89-10.77-26
					c-0.69-1.16-2.25-1.58-3.42-0.9c-1.26,0.74-1.46,2.19-0.9,3.42c3.27,7.18,5.79,14.68,7.6,22.35c1.61-0.44,3.21-0.89,4.82-1.33
					c-1.92-7.9-5.05-15.5-9.25-22.47c-1.67-2.78-5.74-0.34-4.32,2.52c3.36,6.78,6.05,13.85,8.1,21.13c0.87,3.11,5.51,1.8,4.82-1.33
					c-1.85-8.4-5.48-16.4-10.61-23.3c-1.9-2.55-5.78-0.41-4.32,2.52c2.87,5.78,5.74,11.56,8.61,17.34c0.6,1.21,2.31,1.55,3.42,0.9
					c1.26-0.74,1.46-2.19,0.9-3.42c-2.67-5.82-6.05-11.22-9.99-16.26c-1.54-1.97-4.99,0.17-4.18,2.43
					c2.28,6.38,5.19,12.52,8.72,18.31c1.41,2.31,5.63,0.81,4.57-1.93c-3.1-7.98-7.42-15.32-12.91-21.89
					c-1.68-2.01-4.74,0.17-4.18,2.43c2.11,8.54,6.65,16.39,13,22.49c2.12,2.04,5.13-0.52,3.93-3.03
					c-3.7-7.71-8.73-14.75-14.77-20.78c-1.67-1.67-5.07,0.01-4.18,2.43c3.16,8.62,7.77,16.54,13.73,23.53
					c1.83,2.15,5.48-0.66,3.93-3.03c-5.11-7.75-10.37-15.4-15.79-22.93c-1.9-2.64-5.6-0.42-4.32,2.52
					c4.13,9.48,9.8,18.22,16.68,25.93c1.92,2.15,5.32-0.61,3.93-3.03c-5.52-9.59-12.29-18.44-20.08-26.29
					c-0.57-0.57-1.64-0.97-2.43-0.64c-3.28,1.36-3.34,4.9-1.61,7.62c0.95,1.5,2.21,2.87,3.32,4.27c1.22,1.55,2.44,3.1,3.67,4.65
					c4.84,6.14,9.67,12.27,14.51,18.41c1.18-1.18,2.36-2.36,3.54-3.54c-8.67-9.6-17.94-18.65-27.74-27.09
					c-0.94-0.81-2.26-1.01-3.28-0.2c-0.9,0.71-1.38,2.2-0.64,3.23c6.26,8.66,13.98,16.02,21.75,23.31c0.9,0.85,2.3,0.98,3.28,0.2
					c0.88-0.7,1.41-2.22,0.64-3.23c-7.11-9.28-15.3-17.63-24.56-24.78c-0.9-0.69-1.98-1-3.03-0.39c-0.89,0.52-1.54,1.8-1.15,2.82
					c1.1,2.9,2.89,5.3,4.95,7.6c2.2,2.45,4.47,4.85,6.71,7.28c4.69,5.08,9.37,10.15,14.06,15.23c2.19,2.37,5.71-1.17,3.54-3.54
					c-9.18-10.02-18.5-20.04-29.82-27.69c-1.02-0.69-2.53-0.29-3.23,0.64c-0.78,1.04-0.64,2.31,0.2,3.28
					c8.16,9.48,16.33,18.96,24.49,28.44c1.18-1.18,2.36-2.36,3.54-3.54c-8.87-8.49-17.73-16.98-26.6-25.47
					c-2.35-2.25-5.61,1.12-3.54,3.54c8.7,10.13,17.39,20.26,26.09,30.4c1.18-1.18,2.36-2.36,3.54-3.54
					c-10.4-10.22-20.79-20.44-31.35-30.5c-2.33-2.22-5.76,1.2-3.54,3.54c9.67,10.15,19.39,20.34,27.47,31.83
					c1.31-1.01,2.62-2.02,3.93-3.03c-10.97-8.65-20.86-18.59-29.44-29.6c-1.18,1.18-2.36,2.36-3.54,3.54
					c4.59,5.2,9.19,10.4,13.78,15.6c4.07,4.61,8.71,9.11,11.14,14.86c0.72-1.25,1.44-2.51,2.16-3.76c-1.21-0.09-2.27-0.95-3.14-1.73
					c-1.2-1.07-2.33-2.23-3.47-3.37c-2.28-2.3-4.5-4.66-6.64-7.09c-4.3-4.86-8.31-9.97-12.01-15.31c-1.31,1.01-2.62,2.02-3.93,3.03
					c10.38,9.31,20.5,19.12,28.2,30.83c1.31-1.01,2.62-2.02,3.93-3.03c-10.5-8.45-19.93-18.23-27.89-29.11
					c-1.31,1.01-2.62,2.02-3.93,3.03c4.47,4.64,8.81,9.42,13,14.32c2.04,2.39,4.05,4.82,6.02,7.27c1.03,1.29,2.06,2.58,3.07,3.89
					c0.39,0.51,0.84,1,1.17,1.56c0.01,0.01,0.35,0.54,0.23,0.42c0.03,0.1,0.05,0.2,0.08,0.3c0.08-0.32,0.13-0.65,0.16-0.98
					c1.01-0.13,2.02-0.26,3.03-0.39c-9.7-6.44-17.81-15.08-23.69-25.12c-1.31,1.01-2.62,2.02-3.93,3.03
					c8.71,7.59,16.36,16.32,22.69,25.99c0.94-1.22,1.88-2.45,2.82-3.67c-10.11-4.23-17.52-13-24.49-21.11
					c-1.18,1.18-2.36,2.36-3.54,3.54c6.28,5.69,11.85,12.1,16.55,19.16c1.14-1.14,2.28-2.28,3.42-3.42c-5.7-3.5-10.47-8.29-13.95-14
					c-1.14,1.14-2.28,2.28-3.42,3.42c6.07,3.49,11.14,8.43,14.78,14.42c1.31-1.01,2.62-2.02,3.93-3.03
					c-5.69-5.5-11.15-11.24-16.35-17.2c-1.18,1.18-2.36,2.36-3.54,3.54c5.31,4.13,10.7,8.15,16.19,12.05
					c2.32,1.65,5.09-2.01,3.03-3.93c-4.27-3.98-8.54-7.96-12.81-11.94C438.99,165.46,435.45,168.99,437.81,171.19L437.81,171.19z"/>
			</g>
		</g>
		<g class="st4">
			<g>
				<path class="st7" d="M431.35,176.03c4.12,5.06,10.17,8.13,16.6,8.91c1.3,0.16,2.56-1.26,2.5-2.5c-0.07-1.49-1.1-2.33-2.5-2.5
					c-0.21-0.03-0.29-0.05-0.03,0c-0.19-0.03-0.39-0.06-0.58-0.09c-0.35-0.06-0.69-0.13-1.03-0.21c-0.65-0.15-1.29-0.32-1.92-0.53
					c-0.33-0.11-0.67-0.22-1-0.35c-0.15-0.06-0.29-0.11-0.44-0.17c-0.69-0.27,0.23,0.11-0.16-0.07c-0.64-0.29-1.27-0.6-1.89-0.94
					c-0.58-0.32-1.15-0.67-1.7-1.05c-0.29-0.2-0.58-0.4-0.86-0.61c-0.32-0.24,0.26,0.21-0.05-0.04c-0.15-0.12-0.3-0.25-0.45-0.37
					c-1.08-0.91-2.06-1.92-2.95-3.01c-0.83-1.02-2.69-0.93-3.54,0C430.35,173.58,430.46,174.94,431.35,176.03L431.35,176.03z"/>
			</g>
		</g>
		<g class="st4">
			<g>
				<path class="st7" d="M434.87,175.76c0.01-0.01,0.02-0.03,0.04-0.04c0.73-0.79,1-2.07,0.39-3.03c-0.53-0.83-1.29-1.27-2.27-1.31
					c-1.16-0.05-2.05,0.82-2.41,1.84c-0.71,2.01,1.59,4.45,2.96,5.65c1.58,1.39,3.39,2.53,5.25,3.49c3.8,1.97,8.12,3.25,12.44,2.74
					c1.34-0.16,2.5-1.03,2.5-2.5c0-1.23-1.15-2.66-2.5-2.5c-3.22,0.38-6.27-0.29-9.19-1.69c-1.5-0.72-2.97-1.56-4.31-2.54
					c-0.45-0.33-1.03-0.84-1.5-1.34c-0.27-0.28-0.35-0.38-0.52-0.63c-0.09-0.13-0.51-1.08-0.36-0.55c0,0.44,0,0.89,0,1.33
					c0.01-0.04,0.03-0.08,0.04-0.12c-0.8,0.61-1.61,1.22-2.41,1.84c0.02,0,0.05,0,0.07,0c-0.72-0.41-1.44-0.83-2.16-1.24
					c0.01,0.02,0.03,0.04,0.04,0.06c0.13-1.01,0.26-2.02,0.39-3.03c-0.01,0.01-0.02,0.03-0.04,0.04c-0.91,0.99-0.98,2.55,0,3.54
					C432.26,176.68,433.95,176.76,434.87,175.76L434.87,175.76z"/>
			</g>
		</g>
		<g class="st4">
			<g>
				<path class="st7" d="M437.3,180.48c2.33,1.74,4.81,3.5,7.55,4.53c2.76,1.04,5.76,0.8,8.63,0.46c1.29-0.15,2.57-1.04,2.5-2.5
					c-0.05-1.22-1.11-2.66-2.5-2.5c-1.34,0.16-2.69,0.31-4.04,0.3c-1.24-0.01-1.97-0.07-3.26-0.58c0.29,0.11-0.42-0.2-0.5-0.24
					c-0.28-0.14-0.55-0.29-0.83-0.45c-0.55-0.31-1.09-0.65-1.63-0.99c-1.16-0.74-2.29-1.53-3.4-2.35c-1.05-0.79-2.84-0.2-3.42,0.9
					C435.71,178.38,436.18,179.64,437.3,180.48L437.3,180.48z"/>
			</g>
		</g>
		<g class="st4">
			<g>
				<path class="st7" d="M550.34,118.12c1.61,0,1.61-2.5,0-2.5C548.73,115.62,548.73,118.12,550.34,118.12L550.34,118.12z"/>
			</g>
		</g>
		<path class="st3" d="M540.11,144.37"/>
		<g class="st4">
			<g>
				<path class="st5" d="M636.42,136.6c3.22,0,3.22-5,0-5C633.21,131.6,633.2,136.6,636.42,136.6L636.42,136.6z"/>
			</g>
		</g>
		<path class="st6" d="M551.99,159.48c-4.93,0.82-9.18-3.52-8.5-8.46c2.19-16.08,14.15-30,31.31-33.62
			c19.63-4.14,39.56,7.29,45.91,26.31c6.35,19.01-2.36,39.05-19.19,47.9C600.06,179.07,558.95,158.32,551.99,159.48z"/>
		<path class="st3" d="M540.24,136.8"/>
		<g class="st4">
			<g>
				<path class="st5" d="M636.55,129.02c3.22,0,3.22-5,0-5C633.33,124.02,633.33,129.02,636.55,129.02L636.55,129.02z"/>
			</g>
		</g>
		<g class="st4">
			<g>
				<path class="st7" d="M599.15,174.76c1.97,0.48,3.94,0.23,5.68-0.83c-1.22-0.5-2.45-1-3.67-1.49c0.23,1.54-2.98,2.76-4.2,3.16
					c-2.48,0.82-5.21,1.67-6.95,3.75c-2.11,2.51-2.08,5.98-2.48,9.08c-0.45,3.52-0.89,7.03-1.34,10.55c-0.17,1.34,1.27,2.5,2.5,2.5
					c1.49,0,2.33-1.15,2.5-2.5c0.45-3.52,0.89-7.03,1.34-10.55c0.2-1.54,0.26-3.18,0.68-4.68c0.29-1.04,0.98-1.62,1.9-2.12
					c2.29-1.24,4.97-1.52,7.16-3.01c2.63-1.78,4.2-4.29,3.71-7.52c-0.25-1.61-2.42-2.25-3.67-1.49c-0.61,0.37-1.13,0.5-1.83,0.33
					C597.35,169.17,596.02,173.99,599.15,174.76L599.15,174.76z"/>
			</g>
		</g>
		<g class="st4">
			<g>
				<path class="st7" d="M596.46,169.05c-4.34,3.91-8.67,7.81-13.01,11.72c-2.08,1.88,0.67,5.54,3.03,3.93
					c5.37-3.69,10.66-7.49,15.87-11.4c-1.01-1.31-2.02-2.62-3.03-3.93c-5.31,5.87-10.86,11.52-16.64,16.92
					c1.31,1.01,2.62,2.02,3.93,3.03c3.73-5.93,8.91-10.76,15.03-14.15c-1.14-1.14-2.28-2.28-3.42-3.42
					c-3.57,5.66-8.44,10.35-14.2,13.75c1.14,1.14,2.28,2.28,3.42,3.42c4.81-6.98,10.5-13.3,16.88-18.88
					c-1.18-1.18-2.36-2.36-3.54-3.54c-7.11,8-14.66,16.62-24.85,20.68c0.94,1.22,1.88,2.45,2.82,3.67
					c6.48-9.56,14.29-18.16,23.13-25.6c-1.31-1.01-2.62-2.02-3.93-3.03c-6.05,9.95-14.32,18.43-24.12,24.71
					c1.01,0.13,2.02,0.26,3.03,0.39c0.14,0.23,0.2,0.47,0.18,0.73c-0.02,0.3,0,0.33,0.05,0.1c0.01,0,0.19-0.4,0.2-0.42
					c0.3-0.54,0.76-1,1.14-1.48c1.03-1.29,2.08-2.57,3.13-3.84c2.06-2.48,4.15-4.93,6.29-7.35c4.27-4.84,8.68-9.54,13.23-14.11
					c-1.31-1.01-2.62-2.02-3.93-3.03c-8.13,10.74-17.74,20.37-28.38,28.64c1.31,1.01,2.62,2.02,3.93,3.03
					c7.89-11.57,18.19-21.22,28.71-30.35c-1.31-1.01-2.62-2.02-3.93-3.03c-3.79,5.27-7.89,10.31-12.27,15.1
					c-2.19,2.39-4.44,4.72-6.76,6.97c-1.15,1.12-2.31,2.25-3.52,3.31c-0.89,0.78-1.97,1.58-3.18,1.64c0.72,1.25,1.44,2.51,2.16,3.76
					c2.52-5.71,7.25-10.13,11.39-14.66c4.68-5.12,9.36-10.25,14.04-15.37c-1.18-1.18-2.36-2.36-3.54-3.54
					c-8.62,10.69-18.5,20.39-29.42,28.72c1.14,1.14,2.28,2.28,3.42,3.42c8.27-11.35,18.17-21.38,28.01-31.36
					c2.27-2.3-1.17-5.71-3.54-3.54c-10.72,9.88-21.29,19.93-31.85,29.97c1.18,1.18,2.36,2.36,3.54,3.54
					c8.86-9.99,17.73-19.97,26.59-29.96c2.13-2.4-1.16-5.74-3.54-3.54c-9.01,8.34-18.01,16.68-27.02,25.03
					c1.18,1.18,2.36,2.36,3.54,3.54c8.32-9.34,16.64-18.69,24.96-28.03c1.8-2.02-0.53-5.56-3.03-3.93
					c-11.44,7.46-20.93,17.34-30.27,27.2c-2.21,2.33,1.31,5.87,3.54,3.54c4.77-5,9.54-9.99,14.31-14.99
					c2.28-2.39,4.59-4.75,6.83-7.17c2.1-2.26,3.91-4.64,5.06-7.52c0.78-1.95-1.97-4.09-3.67-2.82c-9.37,6.99-17.81,15.1-25.07,24.26
					c-0.84,1.06-1.03,2.5,0,3.54c1,1,2.53,0.91,3.54,0c7.89-7.16,15.72-14.39,22.12-22.95c0.74-0.98,0.26-2.55-0.64-3.23
					c-1.05-0.79-2.3-0.62-3.28,0.2c-9.95,8.28-19.36,17.17-28.19,26.63c1.18,1.18,2.36,2.36,3.54,3.54
					c4.83-5.93,9.67-11.86,14.5-17.78c2.39-2.93,4.98-5.78,7.19-8.85c1.6-2.22,2.45-6.34-0.71-7.72c-1.05-0.46-2.17-0.45-3.03,0.39
					c-7.92,7.72-14.83,16.47-20.5,25.96c-1.44,2.4,1.97,5.15,3.93,3.03c7.01-7.6,12.81-16.25,17.1-25.66
					c1.35-2.95-2.39-5.11-4.32-2.52c-5.54,7.45-10.93,15-16.17,22.67c-1.59,2.33,2.05,5.16,3.93,3.03
					c6.07-6.89,10.8-14.74,14.1-23.31c0.94-2.45-2.51-4.04-4.18-2.43c-6.15,5.94-11.28,12.9-15.11,20.54
					c-1.26,2.51,1.79,5.01,3.93,3.03c6.45-5.99,11.1-13.78,13.35-22.28c0.61-2.29-2.49-4.39-4.18-2.43
					c-5.6,6.48-10.03,13.75-13.26,21.68c-0.46,1.14,0.41,2.53,1.45,2.95c1.17,0.47,2.44,0.05,3.12-1.02
					c3.63-5.73,6.62-11.82,9.02-18.17c0.86-2.28-2.63-4.35-4.18-2.43c-4.02,4.97-7.48,10.33-10.25,16.09
					c-0.58,1.22-0.33,2.7,0.9,3.42c1.12,0.66,2.8,0.31,3.42-0.9c2.96-5.73,5.93-11.46,8.89-17.2c0.62-1.2,0.31-2.71-0.9-3.42
					c-1.29-0.75-2.59-0.18-3.42,0.9c-5.25,6.82-9,14.76-10.99,23.13c-0.74,3.13,3.9,4.42,4.82,1.33c2.17-7.25,4.98-14.26,8.46-20.99
					c1.47-2.85-2.6-5.27-4.32-2.52c-4.31,6.9-7.56,14.45-9.61,22.31c1.61,0.44,3.21,0.89,4.82,1.33c1.95-7.65,4.6-15.09,7.98-22.21
					c1.37-2.87-2.61-5.31-4.32-2.52c-4.91,8.03-8.69,16.75-11.19,25.82c-0.87,3.14,3.75,4.32,4.82,1.33
					c3.05-8.52,7.11-16.63,12.04-24.22c1.53-2.36-2.03-5.16-3.93-3.03c-6.15,6.93-10.51,15.33-12.47,24.39
					c-0.68,3.14,3.87,4.42,4.82,1.33c2.81-9.15,6.89-17.82,12.12-25.84c0.74-1.13,0.23-2.76-0.9-3.42c-1.25-0.73-2.65-0.21-3.42,0.9
					c-5.9,8.46-10.48,17.78-13.66,27.58c-0.86,2.66,3.33,4.5,4.57,1.93c4.3-8.95,8.59-17.9,12.89-26.85
					c1.42-2.95-2.39-5.06-4.32-2.52c-5.51,7.27-9.88,15.28-13.16,23.8c-1.01,2.62,3.39,4.5,4.57,1.93
					c4.52-9.86,10.25-19.16,17.13-27.56c0.85-1.04,1.02-2.51,0-3.54c-0.88-0.88-2.68-1.05-3.54,0c-7.15,8.74-13.2,18.3-17.91,28.57
					c1.52,0.64,3.05,1.28,4.57,1.93c3.11-8.09,7.42-15.69,12.65-22.6c-1.44-0.84-2.88-1.68-4.32-2.52
					c-4.3,8.95-8.59,17.9-12.89,26.85c1.52,0.64,3.05,1.28,4.57,1.93c3.05-9.41,7.5-18.28,13.15-26.39
					c-1.44-0.84-2.88-1.68-4.32-2.52c-5.45,8.36-9.69,17.49-12.62,27.03c1.61,0.44,3.21,0.89,4.82,1.33
					c1.78-8.22,5.59-15.89,11.18-22.18c-1.31-1.01-2.62-2.02-3.93-3.03c-5.17,7.95-9.35,16.49-12.54,25.42
					c1.61,0.44,3.21,0.89,4.82,1.33c2.39-8.69,5.98-16.94,10.68-24.63c-1.44-0.84-2.88-1.68-4.32-2.52
					c-3.57,7.52-6.43,15.34-8.49,23.41c-0.79,3.12,4.01,4.45,4.82,1.33c1.95-7.48,5.01-14.56,9.11-21.12
					c-1.44-0.84-2.88-1.68-4.32-2.52c-3.66,7.1-6.67,14.53-8.96,22.18c1.61,0.44,3.21,0.89,4.82,1.33c1.9-8,5.47-15.42,10.49-21.94
					c-1.44-0.84-2.88-1.68-4.32-2.52c-2.97,5.73-5.93,11.46-8.9,17.2c1.44,0.84,2.88,1.68,4.32,2.52
					c2.57-5.36,5.72-10.46,9.47-15.08c-1.39-0.81-2.79-1.62-4.18-2.43c-2.24,5.94-5.11,11.61-8.51,16.97
					c1.52,0.64,3.05,1.28,4.57,1.93c2.88-7.08,6.97-13.7,11.97-19.47c-1.39-0.81-2.79-1.62-4.18-2.43
					c-2.05,7.72-6.22,14.64-12.07,20.07c1.31,1.01,2.62,2.02,3.93,3.03c3.65-7.29,8.46-13.87,14.33-19.53
					c-1.39-0.81-2.79-1.62-4.18-2.43c-2.97,7.72-7.35,14.9-12.81,21.1c1.31,1.01,2.62,2.02,3.93,3.03
					c5.23-7.67,10.62-15.22,16.17-22.67c-1.44-0.84-2.88-1.68-4.32-2.52c-4.11,9.03-9.59,17.35-16.32,24.65
					c1.31,1.01,2.62,2.02,3.93,3.03c5.47-9.15,12.09-17.51,19.72-24.95c-1.01,0.13-2.02,0.26-3.03,0.39c0.7,0.31-0.25-0.68-0.3-0.72
					c-0.1-0.08-0.08,0.3-0.01,0.1c-0.15,0.44-0.25,0.73-0.51,1.13c-0.8,1.21-1.85,2.3-2.77,3.43c-2.03,2.49-4.05,4.97-6.08,7.46
					c-4.11,5.04-8.21,10.07-12.32,15.11c-0.85,1.05-1.02,2.51,0,3.54c0.93,0.93,2.61,0.99,3.54,0c8.83-9.46,18.24-18.35,28.19-26.63
					c-1.31-1.01-2.62-2.02-3.93-3.03c-6.13,8.19-13.8,15.09-21.34,21.94c1.18,1.18,2.36,2.36,3.54,3.54
					c6.98-8.81,15.05-16.76,24.06-23.48c-1.22-0.94-2.45-1.88-3.67-2.82c-0.97,2.42-2.86,4.37-4.63,6.22
					c-2.22,2.33-4.44,4.65-6.66,6.98c-4.54,4.76-9.08,9.51-13.62,14.27c1.18,1.18,2.36,2.36,3.54,3.54
					c9.04-9.54,18.18-19.2,29.26-26.42c-1.01-1.31-2.02-2.62-3.03-3.93c-8.32,9.34-16.64,18.69-24.96,28.03
					c-2.14,2.4,1.16,5.74,3.54,3.54c9.01-8.34,18.01-16.68,27.02-25.03c-1.18-1.18-2.36-2.36-3.54-3.54
					c-8.86,9.99-17.73,19.97-26.59,29.96c-2.13,2.4,1.19,5.77,3.54,3.54c10.56-10.05,21.13-20.1,31.85-29.97
					c-1.18-1.18-2.36-2.36-3.54-3.54c-10.14,10.3-20.26,20.66-28.79,32.37c-1.43,1.97,1.45,4.92,3.42,3.42
					c11.29-8.6,21.52-18.45,30.44-29.5c0.85-1.05,1.03-2.51,0-3.54c-0.92-0.92-2.62-1-3.54,0c-4.79,5.25-9.58,10.49-14.37,15.74
					c-4.31,4.72-9.22,9.38-11.84,15.31c-0.71,1.6,0.08,3.87,2.16,3.76c3.74-0.2,6.37-2.71,8.94-5.17c2.56-2.44,5.05-4.97,7.45-7.56
					c4.9-5.3,9.45-10.92,13.66-16.78c0.72-1,0.27-2.54-0.64-3.23c-1.04-0.78-2.32-0.64-3.28,0.2c-10.87,9.43-21.36,19.41-29.5,31.36
					c-0.69,1.02-0.29,2.53,0.64,3.23c1.08,0.81,2.27,0.59,3.28-0.2c11-8.55,20.75-18.54,29.16-29.65c0.74-0.98,0.25-2.56-0.64-3.23
					c-0.99-0.74-2.39-0.7-3.28,0.2c-5.22,5.24-10.26,10.65-15.1,16.24c-2.37,2.73-4.69,5.51-6.96,8.32
					c-1.78,2.2-5.42,6.23-2.16,8.88c0.84,0.69,2.03,1.03,3.03,0.39c10.53-6.74,19.42-15.82,25.91-26.51
					c1.55-2.55-1.85-4.78-3.93-3.03c-9.16,7.72-17.19,16.7-23.91,26.61c-1.16,1.71,0.8,4.48,2.82,3.67
					c11.11-4.43,19.27-13.21,27.06-21.97c2.15-2.41-1.11-5.66-3.54-3.54c-6.7,5.87-12.6,12.56-17.66,19.89
					c-1.46,2.12,1.36,4.64,3.42,3.42c6.49-3.83,11.96-9.17,15.99-15.55c1.38-2.18-1.31-4.59-3.42-3.42
					c-6.86,3.8-12.64,9.32-16.82,15.95c-1.55,2.46,1.9,4.93,3.93,3.03c5.78-5.41,11.33-11.05,16.64-16.92
					c0.83-0.92,0.99-2.28,0.2-3.28c-0.7-0.88-2.22-1.4-3.22-0.64c-5.21,3.91-10.5,7.71-15.87,11.4c1.01,1.31,2.02,2.62,3.03,3.93
					c4.34-3.91,8.67-7.81,13.01-11.72C602.39,170.43,598.85,166.9,596.46,169.05L596.46,169.05z"/>
			</g>
		</g>
		<g class="st4">
			<g>
				<path class="st7" d="M602.84,174c-0.89,1.06-1.88,2.04-2.95,2.92c-0.03,0.03-0.39,0.31-0.21,0.17c0.2-0.15-0.33,0.24-0.32,0.23
					c-0.26,0.19-0.52,0.37-0.78,0.54c-0.59,0.39-1.21,0.76-1.84,1.1c-0.28,0.15-0.56,0.29-0.85,0.43c-0.18,0.09-0.36,0.17-0.54,0.25
					c-0.04,0.02-0.47,0.2-0.25,0.11c0.22-0.09-0.21,0.08-0.25,0.1c-0.18,0.07-0.37,0.14-0.56,0.21c-0.3,0.11-0.6,0.21-0.9,0.3
					c-0.68,0.21-1.37,0.4-2.07,0.54c-0.31,0.07-0.62,0.12-0.93,0.18c-0.06,0.01-0.68,0.1-0.37,0.06c0.3-0.04-0.39,0.04-0.38,0.04
					c-1.3,0.14-2.56,1.05-2.5,2.5c0.06,1.24,1.11,2.65,2.5,2.5c6.44-0.67,12.53-3.68,16.73-8.66c0.84-1,1.05-2.57,0-3.54
					C605.45,173.15,603.74,172.93,602.84,174L602.84,174z"/>
			</g>
		</g>
		<g class="st4">
			<g>
				<path class="st7" d="M606.4,173.73c-0.01-0.01-0.02-0.03-0.04-0.04c0.13,1.01,0.26,2.02,0.39,3.03
					c0.01-0.02,0.03-0.04,0.04-0.06c-0.72,0.41-1.44,0.83-2.16,1.24c0.02,0,0.05,0,0.07,0c-0.8-0.61-1.61-1.22-2.41-1.84
					c0.01,0.04,0.03,0.08,0.04,0.12c0-0.44,0-0.89,0-1.33c0.16-0.53-0.29,0.42-0.38,0.54c-0.17,0.24-0.26,0.34-0.53,0.62
					c-0.52,0.54-0.99,0.93-1.53,1.31c-1.32,0.92-2.74,1.72-4.2,2.4c-2.69,1.26-5.86,2.06-8.71,1.68c-1.34-0.18-2.68,0.32-3.08,1.75
					c-0.32,1.17,0.4,2.89,1.75,3.08c4.56,0.62,8.89-0.38,13-2.39c1.85-0.91,3.62-1.99,5.22-3.3c1.48-1.21,3.96-3.68,3.24-5.8
					c-0.35-1.03-1.27-1.86-2.41-1.84c-0.99,0.02-1.73,0.49-2.27,1.3c-0.64,0.96-0.32,2.23,0.39,3.03c0.01,0.01,0.02,0.03,0.04,0.04
					c0.9,1.01,2.62,0.91,3.54,0C607.4,176.26,607.29,174.75,606.4,173.73L606.4,173.73z"/>
			</g>
		</g>
		<g class="st4">
			<g>
				<path class="st7" d="M597.83,177.58c-1.04,0.75-2.11,1.47-3.2,2.15c-0.54,0.34-1.09,0.66-1.65,0.98
					c-0.31,0.18-0.63,0.35-0.95,0.5c-0.16,0.08-0.32,0.16-0.48,0.23c0.15-0.06,0.14-0.06-0.02,0c-1.33,0.51-2.09,0.58-3.39,0.57
					c-1.36-0.01-2.7-0.19-4.04-0.37c-1.3-0.17-2.55,1.27-2.5,2.5c0.07,1.5,1.11,2.31,2.5,2.5c2.9,0.39,5.95,0.7,8.76-0.37
					c2.69-1.03,5.17-2.69,7.49-4.37c1.06-0.76,1.68-2.21,0.9-3.42C600.58,177.43,598.96,176.77,597.83,177.58L597.83,177.58z"/>
			</g>
		</g>
		<g class="st4">
			<g>
				<path class="st7" d="M488.36,117.69c1.61,0,1.61-2.5,0-2.5C486.75,115.19,486.74,117.69,488.36,117.69L488.36,117.69z"/>
			</g>
		</g>
		<g class="st4">
			<g>
				<path class="st7" d="M604.63,171.86c-1.24,3.13-4.92,5.22-7.58,6.98c-1.71,1.13-3.47,2.15-5.42,2.79
					c-2.09,0.69-4.27,1.09-6.43,1.5c-1.33,0.25-2.08,1.85-1.75,3.08c0.38,1.39,1.74,1.99,3.08,1.75c2.35-0.44,4.72-0.88,6.98-1.69
					c2.41-0.86,4.6-2.1,6.71-3.54c3.75-2.55,7.5-5.17,9.24-9.53c0.5-1.25-0.55-2.75-1.75-3.08
					C606.28,169.72,605.13,170.6,604.63,171.86L604.63,171.86z"/>
			</g>
		</g>
		<g class="st4">
			<g>
				<path class="st7" d="M589.25,190.74c0.04,0.13,0.07,0.27,0.11,0.4c0.31,1.15,2.14,1.23,2.41,0c0.12-0.54,0.19-1.09,0.19-1.64
					c-0.83,0-1.67,0-2.5,0c0.06,0.58,0.13,1.17,0.19,1.75c0.07,0.65,0.52,1.28,1.25,1.25c0.73-0.03,1.18-0.55,1.25-1.25
					c0.05-0.53,0.11-1.05,0.16-1.58c-0.83,0-1.67,0-2.5,0c-0.01,0.49-0.02,0.98-0.02,1.47c-0.01,0.65,0.58,1.28,1.25,1.25
					c0.69-0.03,1.24-0.55,1.25-1.25c0.01-0.45,0.02-0.9,0.02-1.35c0.01-0.65-0.58-1.28-1.25-1.25c-0.72,0.03-1.2,0.55-1.25,1.25
					c-0.03,0.37-0.02,0.73,0.03,1.11c0.07,0.63,0.42,1.14,1.08,1.23c0.59,0.08,1.23-0.29,1.37-0.9c0.12-0.51,0.12-0.99-0.02-1.5
					c-0.16-0.6-0.77-0.98-1.37-0.9c-0.63,0.08-1.05,0.6-1.08,1.23c-0.02,0.35-0.03,0.7-0.05,1.04c-0.07,1.39,2.18,1.73,2.46,0.33
					c0.11-0.59,0.17-1.18,0.13-1.78c-0.05-0.63-0.44-1.14-1.08-1.23c-0.55-0.07-1.28,0.28-1.37,0.9c-0.1,0.7-0.11,1.33,0.04,2.02
					c0.29,1.37,2.51,1.07,2.46-0.33c-0.03-0.67-0.05-1.34-0.08-2.01c-0.03-0.65-0.56-1.28-1.25-1.25c-0.69,0.03-1.24,0.55-1.25,1.25
					c-0.01,0.75-0.03,1.49-0.04,2.24c-0.01,0.62,0.48,1.15,1.08,1.23c0.56,0.08,1.27-0.28,1.37-0.9c0.14-0.81,0.2-1.6,0.1-2.42
					c-0.08-0.65-0.52-1.28-1.25-1.25c-0.69,0.03-1.23,0.55-1.25,1.25c-0.01,0.58-0.03,1.15-0.04,1.73
					c-0.01,0.62,0.49,1.15,1.08,1.23c0.57,0.08,1.26-0.28,1.37-0.9c0.19-0.98,0.19-1.91,0.05-2.9c-0.09-0.61-0.82-0.97-1.37-0.9
					c-0.65,0.09-1.03,0.6-1.08,1.23c-0.07,0.8-0.15,1.6-0.22,2.39c-0.06,0.65,0.62,1.28,1.25,1.25c0.74-0.03,1.17-0.55,1.25-1.25
					c0.13-1.1,0.16-2.21,0.09-3.32c-0.04-0.65-0.55-1.28-1.25-1.25c-0.68,0.03-1.25,0.55-1.25,1.25c0,1.28,0,2.56,0,3.85
					c0,0.65,0.58,1.28,1.25,1.25c0.72-0.03,1.19-0.55,1.25-1.25c0.13-1.51,0.2-3.03,0.22-4.54c0.01-0.62-0.48-1.15-1.08-1.23
					c-0.55-0.07-1.28,0.28-1.37,0.9c-0.22,1.53-0.31,3.06-0.21,4.6c0.04,0.65,0.54,1.28,1.25,1.25c0.7-0.03,1.22-0.55,1.25-1.25
					c0.06-1.61,0.1-3.21,0.1-4.82c-0.83,0-1.67,0-2.5,0c0.01,1.53,0.02,3.06,0.03,4.58c0,0.65,0.57,1.28,1.25,1.25
					c0.73-0.03,1.19-0.55,1.25-1.25c0.14-1.5,0.16-3,0.07-4.5c-0.04-0.65-0.55-1.28-1.25-1.25c-0.69,0.03-1.24,0.55-1.25,1.25
					c-0.03,1.47-0.06,2.95-0.09,4.42c-0.01,0.65,0.58,1.28,1.25,1.25c0.75-0.03,1.16-0.55,1.25-1.25c0.33-2.66,0.27-5.31-0.1-7.96
					c-0.09-0.67-0.95-1.04-1.54-0.87c-0.72,0.2-0.97,0.87-0.87,1.54c0.33,2.35,0.31,4.89,0.01,7.3c0.83,0,1.67,0,2.5,0
					c0.03-1.47,0.06-2.95,0.09-4.42c-0.83,0-1.67,0-2.5,0c0.09,1.5,0.07,3-0.07,4.5c0.83,0,1.67,0,2.5,0
					c-0.01-1.53-0.02-3.06-0.03-4.58c0-0.65-0.57-1.28-1.25-1.25c-0.68,0.03-1.25,0.55-1.25,1.25c0,1.61-0.03,3.22-0.1,4.82
					c0.83,0,1.67,0,2.5,0c-0.09-1.3-0.06-2.7,0.12-3.94c-0.82-0.11-1.64-0.22-2.46-0.33c-0.01,1.52-0.09,3.03-0.22,4.54
					c0.83,0,1.67,0,2.5,0c0-1.28,0-2.56,0-3.85c-0.83,0-1.67,0-2.5,0c0.07,1.11,0.04,2.22-0.09,3.32c0.83,0,1.67,0,2.5,0
					c0.07-0.8,0.15-1.6,0.22-2.39c-0.82,0.11-1.64,0.22-2.46,0.33c0.06,0.4,0.03,1.15-0.05,1.57c0.82,0.11,1.64,0.22,2.46,0.33
					c0.01-0.58,0.03-1.15,0.04-1.73c-0.83,0-1.67,0-2.5,0c0.04,0.32,0.06,0.65,0.06,0.97c0,0.29-0.03,0.59-0.06,0.78
					c0.82,0.11,1.64,0.22,2.46,0.33c0.01-0.75,0.03-1.49,0.04-2.24c-0.83,0-1.67,0-2.5,0c0.03,0.67,0.05,1.34,0.08,2.01
					c0.82-0.11,1.64-0.22,2.46-0.33c-0.03-0.16-0.06-0.55-0.04-0.69c-0.82-0.11-1.64-0.22-2.46-0.33c0.02,0.22,0.03,0.44,0.02,0.65
					c-0.01,0.23-0.03,0.33-0.05,0.46c0.82,0.11,1.64,0.22,2.46,0.33c0.02-0.35,0.03-0.7,0.05-1.04c-0.82,0.11-1.64,0.22-2.46,0.33
					c0.04,0.15,0.05,0.18,0.02,0.08c0,0.16,0,0.19-0.01,0.09c0.82,0.11,1.64,0.22,2.46,0.33c-0.04-0.37-0.05-0.73-0.03-1.11
					c-0.83,0-1.67,0-2.5,0c-0.01,0.45-0.02,0.9-0.02,1.35c0.83,0,1.67,0,2.5,0c0.01-0.49,0.02-0.98,0.02-1.47
					c0.01-0.65-0.58-1.28-1.25-1.25c-0.73,0.03-1.18,0.55-1.25,1.25c-0.05,0.53-0.11,1.05-0.16,1.58c0.83,0,1.67,0,2.5,0
					c-0.06-0.58-0.13-1.17-0.19-1.75c-0.07-0.65-0.52-1.28-1.25-1.25c-0.68,0.03-1.24,0.55-1.25,1.25c0,0.42-0.02,0.59-0.1,0.98
					c0.8,0,1.61,0,2.41,0c-0.04-0.13-0.07-0.27-0.11-0.4c-0.17-0.65-0.89-1.05-1.54-0.87C589.47,189.38,589.08,190.08,589.25,190.74
					L589.25,190.74z"/>
			</g>
		</g>
		<line class="st8" x1="543.49" y1="151.02" x2="543.53" y2="153.27"/>
		<path class="st9" d="M496.37,157.07c0,0,12.33-4.38,24.58-4.18c12.23,0.2,24.38,4.99,24.38,4.99"/>
		<g class="st4">
			<g>
				<path class="st7" d="M552.25,150.43c-0.02,0.06-0.23,0.57-0.21,0.6c0.15-0.35,0.17-0.4,0.06-0.16c-0.02,0.05-0.05,0.1-0.07,0.14
					c-0.16,0.34-0.34,0.67-0.51,1.01c-0.38,0.73-0.76,1.46-1.14,2.19c-0.75,1.43-1.5,2.87-2.24,4.3c-0.6,1.16-0.34,2.77,0.9,3.42
					c1.15,0.61,2.77,0.34,3.42-0.9c0.77-1.48,1.55-2.97,2.32-4.45c0.82-1.56,1.78-3.13,2.29-4.83c0.38-1.25-0.45-2.78-1.75-3.08
					C553.98,148.38,552.66,149.09,552.25,150.43L552.25,150.43z"/>
			</g>
		</g>
		<g class="st4">
			<g>
				<path class="st7" d="M546.83,162.28c-0.83,0.99-1.73,1.93-2.68,2.81c-0.24,0.23-0.42,0.49-0.52,0.8
					c-0.16,0.3-0.23,0.62-0.22,0.96c0.03,0.22,0.06,0.44,0.09,0.66c0.08,0.33,0.23,0.61,0.45,0.85c0.11,0.19,0.26,0.34,0.45,0.45
					c0.24,0.22,0.52,0.37,0.85,0.45c0.22,0.03,0.44,0.06,0.66,0.09c0.45,0,0.87-0.12,1.26-0.34c0.52-0.39,1.03-0.78,1.55-1.17
					c-1.14-1.14-2.28-2.28-3.42-3.42c-0.08,0.11-0.16,0.22-0.24,0.33c0.13-0.17,0.26-0.34,0.39-0.51c-0.33,0.42-0.7,0.79-1.12,1.11
					c0.17-0.13,0.34-0.26,0.51-0.39c-0.23,0.18-0.48,0.34-0.73,0.48c1.14,1.14,2.28,2.28,3.42,3.42c0.02-0.03,0.05-0.06,0.07-0.09
					c-0.13,0.17-0.26,0.34-0.39,0.51c0.24-0.31,0.52-0.59,0.83-0.83c-0.17,0.13-0.34,0.26-0.51,0.39c0.2-0.15,0.42-0.29,0.64-0.41
					c-1.22-0.94-2.45-1.88-3.67-2.82c-0.01,0.02-0.01,0.03-0.02,0.05c0.08-0.2,0.17-0.4,0.25-0.6c-0.04,0.08-0.08,0.15-0.14,0.22
					c0.13-0.17,0.26-0.34,0.39-0.51c-0.05,0.05-0.09,0.1-0.15,0.15c0.17-0.13,0.34-0.26,0.51-0.39c-0.03,0.02-0.06,0.04-0.08,0.06
					c1.01,1.31,2.02,2.62,3.03,3.93c0.29-0.29,0.61-0.57,0.94-0.83c-0.17,0.13-0.34,0.26-0.51,0.39c0.43-0.33,0.88-0.62,1.36-0.88
					c0.54-0.29,0.99-0.91,1.15-1.49c0.1-0.33,0.12-0.66,0.04-1c-0.02-0.33-0.11-0.64-0.3-0.93c-0.34-0.53-0.86-1-1.49-1.15
					c-0.67-0.15-1.31-0.07-1.93,0.25c-1.03,0.55-1.98,1.27-2.8,2.09c-0.24,0.23-0.42,0.49-0.52,0.8c-0.16,0.3-0.23,0.62-0.22,0.96
					c0.03,0.22,0.06,0.44,0.09,0.66c0.08,0.33,0.23,0.61,0.45,0.85c0.11,0.19,0.26,0.34,0.45,0.45c0.24,0.22,0.52,0.37,0.85,0.45
					c0.63,0.14,1.38,0.13,1.93-0.25c0.4-0.28,0.65-0.49,0.93-0.85c0.09-0.12,0.21-0.25,0.28-0.38c0.13-0.23,0.22-0.49,0.32-0.74
					c0.03-0.22,0.06-0.44,0.09-0.66c-0.03-0.22-0.06-0.44-0.09-0.66c-0.08-0.2-0.17-0.4-0.25-0.6c-0.16-0.29-0.37-0.53-0.64-0.7
					c-0.16-0.15-0.34-0.26-0.55-0.32c-0.19-0.11-0.41-0.17-0.63-0.17c-0.22-0.06-0.44-0.06-0.66,0c-0.33,0.02-0.64,0.11-0.93,0.3
					c-0.49,0.26-0.94,0.61-1.36,0.97c-0.42,0.37-0.76,0.81-1.09,1.26c-0.08,0.2-0.17,0.4-0.25,0.6c-0.1,0.33-0.12,0.66-0.04,1
					c0,0.23,0.06,0.44,0.17,0.63c0.1,0.31,0.27,0.58,0.52,0.8c0.32,0.29,0.69,0.51,1.1,0.64c0.61,0.2,1.38,0.06,1.93-0.25
					c1.22-0.69,2.21-1.67,2.99-2.83c0.08-0.2,0.17-0.4,0.25-0.6c0.1-0.33,0.12-0.66,0.04-1c0-0.23-0.06-0.44-0.17-0.63
					c-0.1-0.31-0.27-0.58-0.52-0.8c-0.32-0.29-0.69-0.51-1.1-0.64c-0.33-0.1-0.66-0.12-1-0.04c-0.33,0.02-0.64,0.11-0.93,0.3
					c-0.52,0.39-1.03,0.78-1.55,1.17c1.01,1.31,2.02,2.62,3.03,3.93c0.95-0.88,1.84-1.82,2.68-2.81c0.24-0.23,0.42-0.49,0.52-0.8
					c0.16-0.3,0.23-0.62,0.22-0.96c0-0.61-0.27-1.35-0.73-1.77c-0.48-0.44-1.1-0.76-1.77-0.73
					C547.97,161.58,547.25,161.78,546.83,162.28L546.83,162.28z"/>
			</g>
		</g>
		<g class="st4">
			<g>
				<path class="st7" d="M555.62,152.09c0.11-0.38,0.22-0.76,0.34-1.14c0.46-1.56-1.88-2.17-2.41-0.66
					c-0.64,1.83-1.56,3.55-2.5,5.24c-0.92,1.67-1.89,3.34-3.05,4.86c-2.08,2.72-5.03,5.15-8.55,5.49c-0.67,0.07-1.25,0.53-1.25,1.25
					c0,0.62,0.57,1.32,1.25,1.25c4.13-0.41,7.61-2.82,10.16-6.01c1.35-1.7,2.48-3.55,3.53-5.45c1.06-1.93,2.09-3.89,2.82-5.97
					c-0.8-0.22-1.61-0.44-2.41-0.66c-0.11,0.38-0.22,0.76-0.34,1.14C552.75,152.97,555.17,153.63,555.62,152.09L555.62,152.09z"/>
			</g>
		</g>
		<g class="st4">
			<g>
				<path class="st7" d="M552.38,149.61c-0.12,0.62-0.25,1.24-0.37,1.86c0.82,0.11,1.64,0.22,2.46,0.33
					c-0.03-0.37-0.05-0.73-0.08-1.1c-0.1-1.31-2.19-1.81-2.46-0.33c-0.08,0.45-0.16,0.9-0.24,1.34c0.82,0.11,1.64,0.22,2.46,0.33
					c0.04-0.3,0.07-0.6,0.11-0.9c0.2-1.6-2.29-1.57-2.5,0c-0.06,0.48-0.13,0.95-0.19,1.43c-0.18,1.39,2.2,1.71,2.46,0.33
					c0.22-1.2,0.47-2.39,0.74-3.58c-0.8-0.22-1.61-0.44-2.41-0.66c-0.12,0.78-0.23,1.57-0.35,2.35c0.82,0.11,1.64,0.22,2.46,0.33
					c0.19-2.81,1.33-5.43,3.24-7.51c-0.65-0.5-1.31-1.01-1.96-1.51c-2.49,4.48-3.59,9.6-6.31,13.96c-2.7,4.33-7.18,6.8-12.32,6.14
					c0,0.83,0,1.67,0,2.5c3.75,0.41,7.46-0.3,10.84-1.95c-0.5-0.65-1.01-1.31-1.51-1.96c-1.91,1.96-4.41,3.09-7.15,3.19
					c0,0.83,0,1.67,0,2.5c2.41-0.1,4.1-0.94,5.98-2.41c1.75-1.36,3.29-2.94,4.64-4.69c2.72-3.52,4.55-7.67,5.27-12.07
					c0.25-1.56-1.94-2.24-2.41-0.66c-0.72,2.42-1.45,4.85-2.17,7.27c-0.4,1.32,1.7,2.28,2.28,0.96c0.92-2.05,1.66-4.15,2.21-6.33
					c-0.8-0.22-1.61-0.44-2.41-0.66c-0.88,3.8-2.38,7.56-5.14,10.39c-2.65,2.72-6.52,4.45-10.35,3.78
					c-0.11,0.82-0.22,1.64-0.33,2.46c2,0.19,3.98-0.09,5.96-0.38c1.43-0.21,1.03-2.44-0.33-2.46c-3.7-0.05-7.4-0.05-11.1,0
					c-1.61,0.02-1.61,2.52,0,2.5c3.7-0.04,7.4-0.04,11.1,0c-0.11-0.82-0.22-1.64-0.33-2.46c-1.77,0.26-3.51,0.47-5.29,0.29
					c-1.39-0.13-1.72,2.21-0.33,2.46c4.47,0.78,8.92-0.81,12.22-3.86c3.41-3.15,5.32-7.6,6.35-12.05c0.36-1.56-2.02-2.23-2.41-0.66
					c-0.49,1.97-1.13,3.88-1.96,5.73c0.76,0.32,1.52,0.64,2.28,0.96c0.72-2.42,1.45-4.85,2.17-7.27c-0.8-0.22-1.61-0.44-2.41-0.66
					c-0.62,3.82-2.08,7.4-4.33,10.55c-2.08,2.92-5.35,6.61-9.15,6.77c-1.6,0.07-1.61,2.55,0,2.5c3.39-0.11,6.55-1.48,8.91-3.92
					c1.02-1.05-0.26-2.57-1.51-1.96c-3,1.46-6.27,1.97-9.58,1.61c-1.61-0.18-1.57,2.3,0,2.5c5.35,0.69,10.38-1.75,13.55-6.01
					c3.42-4.59,4.49-10.38,7.24-15.33c0.67-1.21-0.98-2.59-1.96-1.51c-2.37,2.58-3.73,5.78-3.97,9.28
					c-0.09,1.39,2.25,1.73,2.46,0.33c0.12-0.78,0.23-1.57,0.35-2.35c0.23-1.55-2.04-2.27-2.41-0.66c-0.27,1.19-0.52,2.38-0.74,3.58
					c0.82,0.11,1.64,0.22,2.46,0.33c0.06-0.48,0.13-0.95,0.19-1.43c-0.83,0-1.67,0-2.5,0c-0.04,0.3-0.07,0.6-0.11,0.9
					c-0.17,1.39,2.21,1.72,2.46,0.33c0.08-0.45,0.16-0.9,0.24-1.34c-0.82-0.11-1.64-0.22-2.46-0.33c0.03,0.37,0.05,0.73,0.08,1.1
					c0.1,1.32,2.16,1.8,2.46,0.33c0.12-0.62,0.25-1.24,0.37-1.86C555.11,148.7,552.7,148.03,552.38,149.61L552.38,149.61z"/>
			</g>
		</g>
		<g class="st4">
			<g>
				<path class="st7" d="M558,161.53c-0.09,0.12-0.18,0.25-0.27,0.37c-0.09,0.14-0.14,0.3-0.15,0.46c-0.04,0.17-0.03,0.33,0.02,0.5
					c0.04,0.16,0.11,0.3,0.22,0.43c0.09,0.14,0.21,0.24,0.35,0.32c0.1,0.04,0.2,0.08,0.3,0.13c0.22,0.06,0.44,0.06,0.66,0
					c0.1-0.04,0.2-0.08,0.3-0.13c0.19-0.11,0.34-0.26,0.45-0.45c0.09-0.12,0.18-0.25,0.27-0.37c0.09-0.14,0.14-0.3,0.15-0.46
					c0.04-0.17,0.03-0.33-0.02-0.5c-0.04-0.16-0.11-0.3-0.22-0.43c-0.09-0.14-0.21-0.24-0.35-0.32c-0.1-0.04-0.2-0.08-0.3-0.13
					c-0.22-0.06-0.44-0.06-0.66,0c-0.1,0.04-0.2,0.08-0.3,0.13C558.26,161.2,558.11,161.34,558,161.53L558,161.53z"/>
			</g>
		</g>
		<g class="st4">
			<g>
				<path class="st7" d="M544.1,164.04c0.92-0.35,1.84-0.7,2.76-1.05c-0.32-0.76-0.64-1.52-0.96-2.28
					c-2.58,1.27-5.52,1.64-8.33,1.05c-1.57-0.33-2.21,1.93-0.66,2.41c4,1.25,8.37,0.25,11.5-2.5c1.06-0.93-0.33-2.74-1.51-1.96
					c-2.16,1.4-4.45,2.89-7.13,2.7c0,0.83,0,1.67,0,2.5c2.73-0.16,5.34-0.94,7.68-2.35c1.41-0.85,0.18-2.79-1.26-2.16
					c-1.92,0.84-3.98,1.35-6.07,1.52c-1.6,0.13-1.62,2.4,0,2.5c3.18,0.2,6.23-0.89,8.64-2.95c1.07-0.91-0.38-2.82-1.51-1.96
					c-0.57,0.43-1.01,0.87-1.35,1.51c-0.53,1.01,0.63,2.51,1.71,1.71c3.4-2.53,5.93-5.88,7.42-9.85c0.5-1.33-1.61-2.19-2.28-0.96
					c-0.69,1.26-1.38,2.52-2.07,3.79c-0.78,1.43,1.26,2.59,2.16,1.26c1.19-1.75,2.13-3.63,2.87-5.62c0.5-1.36-1.57-2.14-2.28-0.96
					c-0.86,1.43-1.62,2.9-2.27,4.43c-0.61,1.44,1.31,2.69,2.16,1.26c0.85-1.43,1.46-2.97,1.82-4.59c0.32-1.43-1.47-2.1-2.28-0.96
					c-0.92,1.28-1.59,2.69-2.03,4.2c-0.41,1.39,1.54,2.14,2.28,0.96c1.66-2.64,3.03-5.44,4.13-8.36c0.5-1.33-1.64-2.21-2.28-0.96
					c-1.42,2.74-2.66,5.56-3.71,8.45c0.8,0.22,1.61,0.44,2.41,0.66c0.4-1.17,0.8-2.33,1.2-3.5c0.47-1.37-1.57-2.15-2.28-0.96
					c-0.67,1.1-1.2,2.27-1.6,3.5c-0.44,1.32,1.72,2.27,2.28,0.96c0.33-0.75,0.66-1.51,0.98-2.26c0.63-1.45-1.47-2.73-2.16-1.26
					c-0.36,0.77-0.72,1.54-1.08,2.31c0.76,0.32,1.52,0.64,2.28,0.96c0.27-0.79,0.53-1.59,0.8-2.38c0.47-1.4-1.53-2.09-2.28-0.96
					c-0.53,0.79-0.89,1.67-1.06,2.6c-0.28,1.6,1.82,2.16,2.41,0.66c0.35-0.89,0.7-1.78,1.05-2.67c0.51-1.31-1.71-2.26-2.28-0.96
					c-0.39,0.87-0.78,1.75-1.17,2.62c-0.64,1.44,1.31,2.68,2.16,1.26c0.58-0.96,1.02-1.98,1.36-3.05c0.42-1.34-1.64-2.24-2.28-0.96
					c-0.47,0.93-0.84,1.9-1.07,2.92c-0.36,1.59,1.84,2.15,2.41,0.66c0.39-1.01,0.77-2.02,1.16-3.03c0.58-1.5-1.84-2.15-2.41-0.66
					c-0.39,1.01-0.77,2.02-1.16,3.03c0.8,0.22,1.61,0.44,2.41,0.66c0.18-0.81,0.44-1.58,0.82-2.32c-0.76-0.32-1.52-0.64-2.28-0.96
					c-0.27,0.87-0.64,1.67-1.11,2.45c0.72,0.42,1.44,0.84,2.16,1.26c0.39-0.87,0.78-1.75,1.17-2.62c-0.76-0.32-1.52-0.64-2.28-0.96
					c-0.35,0.89-0.7,1.78-1.05,2.67c0.8,0.22,1.61,0.44,2.41,0.66c0.14-0.76,0.37-1.37,0.8-2.01c-0.76-0.32-1.52-0.64-2.28-0.96
					c-0.27,0.79-0.53,1.59-0.8,2.38c-0.45,1.32,1.68,2.26,2.28,0.96c0.36-0.77,0.72-1.54,1.08-2.31c-0.72-0.42-1.44-0.84-2.16-1.26
					c-0.33,0.75-0.66,1.51-0.98,2.26c0.76,0.32,1.52,0.64,2.28,0.96c0.34-1.03,0.79-1.98,1.35-2.9c-0.76-0.32-1.52-0.64-2.28-0.96
					c-0.4,1.17-0.8,2.33-1.2,3.5c-0.53,1.53,1.86,2.16,2.41,0.66c0.98-2.69,2.14-5.31,3.46-7.86c-0.76-0.32-1.52-0.64-2.28-0.96
					c-1.02,2.72-2.33,5.31-3.88,7.77c0.76,0.32,1.52,0.64,2.28,0.96c0.39-1.31,0.99-2.49,1.78-3.6c-0.76-0.32-1.52-0.64-2.28-0.96
					c-0.32,1.42-0.83,2.73-1.57,3.99c0.72,0.42,1.44,0.84,2.16,1.26c0.65-1.53,1.4-3.01,2.27-4.43c-0.76-0.32-1.52-0.64-2.28-0.96
					c-0.66,1.78-1.55,3.45-2.61,5.02c0.72,0.42,1.44,0.84,2.16,1.26c0.69-1.26,1.38-2.52,2.07-3.79c-0.76-0.32-1.52-0.64-2.28-0.96
					c-1.24,3.31-3.44,6.25-6.27,8.36c0.57,0.57,1.14,1.14,1.71,1.71c0.12-0.23,0.24-0.45,0.45-0.61c-0.5-0.65-1.01-1.31-1.51-1.96
					c-1.92,1.63-4.37,2.37-6.87,2.22c0,0.83,0,1.67,0,2.5c2.56-0.21,4.98-0.83,7.33-1.86c-0.42-0.72-0.84-1.44-1.26-2.16
					c-1.96,1.18-4.13,1.88-6.42,2.01c-1.61,0.09-1.6,2.39,0,2.5c3.12,0.22,5.87-1.4,8.39-3.04c-0.5-0.65-1.01-1.31-1.51-1.96
					c-2.47,2.17-5.95,2.83-9.07,1.85c-0.22,0.8-0.44,1.61-0.66,2.41c3.5,0.73,7.05,0.28,10.26-1.3c1.25-0.62,0.37-2.79-0.96-2.28
					c-0.92,0.35-1.84,0.7-2.76,1.05C541.95,162.2,542.59,164.61,544.1,164.04L544.1,164.04z"/>
			</g>
		</g>
	</g>
	<g id="Layer_4" class="st2">
	</g>
	<path d="M335.14,201.92c-2.68-2.09-4.01-4.68-4.01-7.77c0-3.2,1.33-5.81,4.01-7.85c2.67-2.04,6.11-3.06,10.3-3.06
		c4.05,0,7.45,1.05,10.2,3.14c2.75,2.1,4.12,4.69,4.12,7.77c0,2.98-1.41,5.54-4.23,7.69s-6.18,3.22-10.09,3.22
		C341.25,205.06,337.82,204.01,335.14,201.92z M332.65,294.66v-76.88c0-1.87,1.3-2.81,3.91-2.81h17.79c2.6,0,3.91,0.94,3.91,2.81
		v76.88c0,1.98-1.3,2.98-3.91,2.98h-17.79C333.95,297.64,332.65,296.65,332.65,294.66z"/>
	<path d="M471.01,260.77v-10.91c0-1.98,1.23-2.98,3.69-2.98h46.64c2.6,0,3.9,0.99,3.9,2.98v10.91c0,1.88-1.3,2.81-3.9,2.81H474.7
		C472.24,263.58,471.01,262.65,471.01,260.77z"/>
	<path d="M591.78,209.35v6.45c-3.76-2.53-8.75-3.8-14.97-3.8c-9.54,0-17.18,2.59-22.89,7.77c-5.71,5.18-8.57,11.9-8.57,20.17v30.58
		c0,8.38,3.29,15.16,9.87,20.33c6.58,5.18,15.29,7.77,26.14,7.77c10.7,0,19.38-2.59,26.03-7.77c6.65-5.18,9.98-11.96,9.98-20.33
		v-61.14C608.86,209.16,600.32,209.31,591.78,209.35z M591.78,271.68c0,2.54-0.94,4.57-2.82,6.12c-1.88,1.54-4.41,2.31-7.59,2.31
		c-3.18,0-5.72-0.77-7.59-2.31c-1.88-1.54-2.82-3.58-2.82-6.12v-32.73c0-2.53,0.94-4.57,2.82-6.12c1.88-1.54,4.41-2.31,7.59-2.31
		c3.18,0,5.71,0.77,7.59,2.31c1.88,1.54,2.82,3.58,2.82,6.12V271.68z"/>
	<path d="M372.01,294.66v-76.88c0-1.87,1.3-2.81,3.91-2.81h17.79c2.6,0,3.91,0.94,3.91,2.81v76.88c0,1.98-1.3,2.98-3.91,2.98h-17.79
		C373.31,297.64,372.01,296.65,372.01,294.66z M418.95,295.36l-42.52-64.05c-1.04-1.56-0.47-3.06,1.7-4.5l14.82-9.84
		c2.17-1.44,3.77-1.38,4.81,0.18l42.52,64.05c1.1,1.65,0.56,3.2-1.61,4.64l-14.82,9.84C421.68,297.12,420.04,297.01,418.95,295.36z
		 M419.33,294.66v-76.88c0-1.87,1.3-2.81,3.91-2.81h17.79c2.6,0,3.91,0.94,3.91,2.81v76.88c0,1.98-1.3,2.98-3.91,2.98h-17.79
		C420.64,297.64,419.33,296.65,419.33,294.66z"/>
	<path class="st10" d="M413.15,174.98c1.59,3.13,4.67,9.1,6.15,11.15c0.51,0.71,1.07,2.11,1.4,3.27c0.18,0.65,0.76,1.13,1.43,1.16
		c7.34,0.29,6.55-1.15,14.08-0.5c0.15,0.01,4.73-0.34,4.88-0.33c0.92,0.07,1.63,0.54,1.63-0.38c0-0.01,1.88-1.43,1.88-1.44
		c0.74-2.94,0.61-4.09-2.86-6.02c-1.51-0.84-4.07-2.73-5.79-4.06c-10.77-8.36-12.39-21.55-12.6-23.5
		c-0.26-2.42-1.59-17.12,9.19-28.13c9.94-10.16,22.56-9.41,24.51-9.26c10.18,0.78,18.8,6.63,23.15,13.18
		c5.27,7.93,5.36,12.91,8.17,19.23c0.95,2.14,3.29,5,6.81,6.41c3.24,1.3,5.72,0.38,9.87-0.36c2.6-0.46,14.52-2.57,25.87,0.36
		c2.82,0.73,5.13,1.64,8.51,1.07c4.78-0.81,7.88-3.96,8.51-4.63c3.65-3.85,3.5-7.72,5.11-12.46c3.78-11.16,13.81-16.96,15.32-17.81
		c1.52-0.85,12.7-6.87,25.19-2.14c7.12,2.7,11.29,7.62,12.94,9.62c1.9,2.3,5.92,7.78,7.49,16.03c0.55,2.91,1.96,10.91-1.7,19.59
		c-2.62,6.2-6.26,9.61-9.19,11.44c-3.45,2.15-7.57,3.78-9.71,4.8c-2.29,1.1-1.35,5.04-1.62,7.71v1.64c0,0.87,0.7,1.57,1.56,1.59
		c7.48,0.11,14.96,0.2,22.44,0.26c0.88,0.01,1.6-0.71,1.6-1.59v-2.55c0-1.87,0.69-3.65,1.91-5.01c2.1-2.37,4.51-5.58,6.63-9.73
		c0.78-1.54,3.66-7.39,4.77-15.31c2.56-18.29-6.34-32.74-7.49-34.54c-8.11-12.74-19.44-17.69-23.49-19.23
		c-12.03-4.57-22.49-2.81-26.89-1.78c-2.41,0.56-11.03,2.78-19.74,9.97c-3.17,2.62-10.08,8.46-14.3,18.87
		c-0.81,1.99-1.41,3.9-1.87,5.67c-0.91,3.52-4.09,5.87-7.55,5.43c-3.27-0.41-6.84-0.7-10.67-0.77c-3.88-0.07-7.5,0.1-10.81,0.4
		c-3.19,0.29-6.11-1.75-7.16-4.91c-0.69-2.08-1.54-4.37-2.59-6.79c-1.58-3.65-3.66-8.45-7.36-13.27
		c-6.14-7.99-13.5-11.84-16.34-13.18c-12.98-6.11-24.85-3.73-28.94-2.85c-8.42,1.82-14.3,5.5-16.68,7.12
		c-8.23,5.6-12.6,12.37-13.96,14.6c-3.98,6.54-5.37,12.39-6.13,15.67c-0.88,3.81-2.48,11.08-1.02,20.3
		C408.89,166.51,411.59,171.93,413.15,174.98z"/>
	<path class="st10" d="M419.58,195.11c0.57,0.11,1.13,0.23,1.7,0.34c0.95,0.19,1.69,0.57,2.26,1.08c5.57,1.26,12.35-0.26,17.67-0.83
		c1.25-0.13,2.5-0.23,3.75-0.34v-9.22c0-1.2-0.97-2.17-2.17-2.17h-21.31c-1.2,0-2.17,0.97-2.17,2.17v8.95
		C419.4,195.1,419.49,195.1,419.58,195.11z"/>
	<path d="M419.3,213.29v2.86c0,2.13,1.72,3.85,3.85,3.85h19.63c1.2,0,2.17-0.97,2.17-2.17v-4.23
		C436.41,213.42,427.86,213.32,419.3,213.29z"/>
	<g class="st2">
	</g>
	<g class="st2">
		<g class="st4">
			<path class="st7" d="M428.33,171.64c1.66,4.38,5.4,7.06,9.1,9.67c2.04,1.43,4.14,2.67,6.47,3.57c2.3,0.89,4.72,1.38,7.13,1.87
				c1.32,0.27,2.7-0.38,3.08-1.75c0.34-1.23-0.42-2.8-1.75-3.08c-2.09-0.43-4.19-0.85-6.22-1.54c-2-0.68-3.81-1.76-5.55-2.95
				c-2.66-1.82-6.25-3.97-7.44-7.12c-0.48-1.26-1.69-2.13-3.08-1.75C428.87,168.9,427.85,170.37,428.33,171.64L428.33,171.64z"/>
		</g>
	</g>
	<g class="st2">
		<g class="st4">
			<path class="st7" d="M445.82,188.8c-0.04,0.13-0.08,0.27-0.11,0.4c0.8,0,1.61,0,2.41,0c-0.06-0.31-0.08-0.58-0.08-0.98
				c0-0.65-0.58-1.28-1.25-1.25c-0.75,0.03-1.16,0.55-1.25,1.25c-0.07,0.58-0.15,1.16-0.22,1.75c0.83,0,1.67,0,2.5,0
				c-0.04-0.53-0.09-1.05-0.13-1.58c-0.05-0.65-0.54-1.28-1.25-1.25c-0.68,0.03-1.25,0.55-1.25,1.25c0,0.49,0,0.98,0,1.47
				c0.83,0,1.67,0,2.5,0c0-0.45,0-0.9,0-1.35c-0.83,0-1.67,0-2.5,0c0.02,0.37,0.01,0.74-0.04,1.1c0.82-0.11,1.64-0.22,2.46-0.33
				c0,0.1,0,0.07,0-0.09c-0.02,0.1-0.01,0.07,0.03-0.08c-0.82-0.11-1.64-0.22-2.46-0.33c0.01,0.35,0.02,0.7,0.03,1.04
				c0.82-0.11,1.64-0.22,2.46-0.33c0-0.02-0.03-0.22-0.02-0.1c-0.01-0.12-0.02-0.24-0.02-0.36c-0.01-0.22,0.01-0.44,0.03-0.65
				c-0.83,0-1.67,0-2.5,0c0.05,0.4,0.06,0.69-0.02,1.02c0.82,0.11,1.64,0.22,2.46,0.33c0.04-0.67,0.07-1.34,0.11-2.01
				c-0.83,0-1.67,0-2.5,0c0,0.75,0,1.49,0,2.24c0.82-0.11,1.64-0.22,2.46-0.33c-0.05-0.3-0.06-1.12-0.02-1.42
				c-0.82-0.11-1.64-0.22-2.46-0.33c0,0.58,0.01,1.15,0.01,1.73c0.82-0.11,1.64-0.22,2.46-0.33c-0.07-0.39-0.07-1.17-0.01-1.57
				c-0.82-0.11-1.64-0.22-2.46-0.33c0.06,0.8,0.12,1.6,0.18,2.4c0.83,0,1.67,0,2.5,0c-0.11-1.11-0.12-2.22-0.04-3.32
				c-0.83,0-1.67,0-2.5,0c-0.02,1.28-0.04,2.56-0.06,3.84c0.83,0,1.67,0,2.5,0c-0.1-1.51-0.15-3.03-0.14-4.54c-0.83,0-1.67,0-2.5,0
				c0.18,1.42,0.21,2.85,0.09,4.27c0.83,0,1.67,0,2.5,0c-0.04-1.61-0.04-3.22-0.02-4.82c0.01-0.65-0.58-1.28-1.25-1.25
				c-0.69,0.03-1.23,0.55-1.25,1.25c-0.03,1.53-0.07,3.05-0.1,4.58c0.83,0,1.67,0,2.5,0c-0.11-1.5-0.11-3,0.01-4.5
				c-0.83,0-1.67,0-2.5,0c0,1.47,0.01,2.95,0.01,4.42c0.83,0,1.67,0,2.5,0c-0.26-2.42-0.23-4.94,0.14-7.3
				c0.1-0.64-0.16-1.38-0.87-1.54c-0.6-0.14-1.43,0.18-1.54,0.87c-0.41,2.64-0.51,5.3-0.23,7.96c0.07,0.65,0.53,1.28,1.25,1.25
				c0.68-0.03,1.25-0.55,1.25-1.25c0-1.47-0.01-2.95-0.01-4.42c0-0.65-0.57-1.28-1.25-1.25c-0.72,0.03-1.2,0.55-1.25,1.25
				c-0.12,1.5-0.12,3-0.01,4.5c0.05,0.65,0.54,1.28,1.25,1.25c0.69-0.03,1.23-0.55,1.25-1.25c0.03-1.53,0.07-3.05,0.1-4.58
				c-0.83,0-1.67,0-2.5,0c-0.03,1.61-0.02,3.22,0.02,4.82c0.02,0.65,0.56,1.28,1.25,1.25c0.72-0.03,1.19-0.55,1.25-1.25
				c0.12-1.43,0.09-2.85-0.09-4.27c-0.08-0.65-0.52-1.28-1.25-1.25c-0.68,0.03-1.25,0.55-1.25,1.25c-0.01,1.52,0.04,3.03,0.14,4.54
				c0.04,0.65,0.54,1.28,1.25,1.25c0.69-0.03,1.24-0.55,1.25-1.25c0.02-1.28,0.04-2.56,0.06-3.84c0.01-0.65-0.58-1.28-1.25-1.25
				c-0.72,0.03-1.2,0.55-1.25,1.25c-0.08,1.11-0.07,2.22,0.04,3.32c0.06,0.65,0.53,1.28,1.25,1.25c0.64-0.03,1.3-0.55,1.25-1.25
				c-0.06-0.8-0.12-1.6-0.18-2.4c-0.05-0.63-0.44-1.14-1.08-1.23c-0.56-0.08-1.27,0.28-1.37,0.9c-0.16,0.99-0.16,1.91,0.01,2.9
				c0.1,0.61,0.81,0.97,1.37,0.9c0.6-0.08,1.09-0.6,1.08-1.23c0-0.58-0.01-1.15-0.01-1.73c0-0.62-0.47-1.15-1.08-1.23
				c-0.55-0.07-1.29,0.28-1.37,0.9c-0.13,0.94-0.13,1.81,0.02,2.75c0.09,0.61,0.82,0.97,1.37,0.9c0.61-0.08,1.08-0.6,1.08-1.23
				c0-0.75,0-1.49,0-2.24c0-0.65-0.57-1.28-1.25-1.25c-0.71,0.03-1.21,0.55-1.25,1.25c-0.04,0.67-0.07,1.34-0.11,2.01
				c-0.08,1.4,2.14,1.7,2.46,0.33c0.13-0.56,0.18-1.12,0.11-1.69c-0.09-0.65-0.51-1.28-1.25-1.25c-0.73,0.03-1.18,0.55-1.25,1.25
				c-0.06,0.6,0,1.19,0.1,1.78c0.11,0.61,0.81,0.97,1.37,0.9c0.59-0.08,1.1-0.6,1.08-1.23c-0.01-0.35-0.02-0.7-0.03-1.04
				c-0.04-1.4-2.06-1.71-2.46-0.33c-0.14,0.51-0.14,0.99-0.03,1.5c0.13,0.61,0.79,0.97,1.37,0.9c0.67-0.09,1-0.6,1.08-1.23
				c0.05-0.37,0.06-0.73,0.04-1.1c-0.03-0.65-0.55-1.28-1.25-1.25c-0.68,0.03-1.25,0.55-1.25,1.25c0,0.45,0,0.9,0,1.35
				c0,0.65,0.57,1.28,1.25,1.25c0.68-0.03,1.25-0.55,1.25-1.25c0-0.49,0-0.98,0-1.47c-0.83,0-1.67,0-2.5,0
				c0.04,0.53,0.09,1.05,0.13,1.58c0.05,0.65,0.54,1.28,1.25,1.25c0.75-0.03,1.16-0.55,1.25-1.25c0.07-0.58,0.15-1.16,0.22-1.75
				c-0.83,0-1.67,0-2.5,0c0,0.55,0.06,1.1,0.17,1.64c0.25,1.25,2.09,1.13,2.41,0c0.04-0.13,0.08-0.27,0.11-0.4
				c0.18-0.63-0.22-1.39-0.87-1.54C446.69,187.77,446.01,188.12,445.82,188.8L445.82,188.8z"/>
		</g>
	</g>
	<g class="st2">
		<g class="st4">
			<path class="st7" d="M445.06,188.77c0.03,0.09,0.05,0.19,0.07,0.28c-0.01-0.11-0.03-0.22-0.04-0.33c0.02,0.14,0.02,0.28,0,0.41
				c0.83,0,1.67,0,2.5,0c0-0.23,0-0.47,0-0.7c-0.83,0-1.67,0-2.5,0c0.01,0.11,0.01,0.23-0.01,0.34c0.01-0.11,0.03-0.22,0.04-0.33
				c-0.02,0.11-0.04,0.22-0.08,0.33c-0.1,0.28-0.03,0.72,0.13,0.96c0.15,0.23,0.34,0.4,0.6,0.51c0.25,0.1,0.55,0.15,0.81,0.06
				c0.32-0.1,0.56-0.29,0.75-0.57c0.05-0.08,0.1-0.15,0.15-0.23c-0.78-0.21-1.55-0.42-2.33-0.63c-0.03,0.62-0.06,1.25-0.09,1.87
				c-0.02,0.31,0.15,0.67,0.37,0.88c0.22,0.22,0.57,0.38,0.88,0.37c0.32-0.01,0.66-0.12,0.88-0.37c0.23-0.25,0.35-0.54,0.37-0.88
				c0.03-0.62,0.06-1.25,0.09-1.87c-0.01-0.11-0.03-0.22-0.04-0.33c-0.04-0.16-0.11-0.3-0.22-0.43c-0.16-0.21-0.39-0.39-0.65-0.45
				c-0.22-0.05-0.44-0.05-0.66,0c-0.31,0.07-0.58,0.32-0.75,0.57c-0.05,0.08-0.1,0.15-0.15,0.23c0.76,0.32,1.52,0.64,2.28,0.96
				c0.06-0.16,0.08-0.32,0.1-0.49c0.02-0.17,0.04-0.33,0.03-0.5c-0.02-0.33-0.12-0.64-0.37-0.88c-0.22-0.22-0.57-0.38-0.88-0.37
				c-0.32,0.01-0.66,0.12-0.88,0.37c-0.22,0.24-0.37,0.55-0.37,0.88c0,0.24,0,0.47,0,0.7c0,0.32,0.14,0.66,0.37,0.88
				c0.22,0.22,0.57,0.38,0.88,0.37c0.32-0.01,0.66-0.12,0.88-0.37c0.07-0.08,0.13-0.17,0.2-0.25c0.11-0.19,0.17-0.41,0.17-0.63
				c0.01-0.12,0.02-0.25,0-0.37c-0.02-0.22-0.05-0.44-0.12-0.66c-0.1-0.31-0.29-0.58-0.57-0.75c-0.27-0.16-0.66-0.22-0.96-0.13
				c-0.3,0.1-0.59,0.29-0.75,0.57C445.04,188.1,444.96,188.45,445.06,188.77L445.06,188.77z"/>
		</g>
	</g>
	<g class="st2">
		<g class="st4">
			<path class="st7" d="M445.5,187.69c-0.1,0.68-0.16,1.36-0.16,2.05c0,0.32,0.14,0.65,0.37,0.88c0.22,0.22,0.57,0.38,0.88,0.37
				c0.68-0.03,1.25-0.55,1.25-1.25c0-0.59,0-1.19,0.01-1.78c0-0.32-0.14-0.66-0.37-0.88c-0.22-0.22-0.57-0.38-0.88-0.37
				c-0.32,0.01-0.66,0.12-0.88,0.37c-0.07,0.08-0.13,0.17-0.2,0.25c-0.11,0.19-0.17,0.41-0.17,0.63c-0.08,0.62-0.11,1.24-0.09,1.87
				c0.83,0,1.67,0,2.5,0c-0.03-0.39-0.02-0.79,0.03-1.18c-0.01,0.11-0.03,0.22-0.04,0.33c0.02-0.11,0.03-0.23,0.06-0.34
				c-0.82-0.11-1.64-0.22-2.46-0.33c-0.03,0.55-0.06,1.09-0.1,1.64c0.83,0,1.67,0,2.5,0c0-0.43,0.03-0.85,0.08-1.28
				c-0.01,0.11-0.03,0.22-0.04,0.33c0.01-0.08,0.02-0.17,0.04-0.25c-0.82-0.11-1.64-0.22-2.46-0.33c-0.04,0.47-0.07,0.95-0.11,1.42
				c0.83,0,1.67,0,2.5,0c0-0.5,0-0.99,0-1.49c-0.83,0-1.67,0-2.5,0c0.02,0.48,0,0.96-0.06,1.43c-0.03,0.28,0.16,0.7,0.37,0.88
				c0.21,0.19,0.44,0.31,0.72,0.34c0.27,0.04,0.56,0,0.8-0.15c0.26-0.17,0.51-0.43,0.57-0.75c0.07-0.33,0.11-0.66,0.12-0.99
				c0.01-0.33-0.04-0.67-0.09-1c-0.04-0.28-0.33-0.62-0.57-0.75c-0.25-0.13-0.51-0.19-0.8-0.15c-0.26,0.04-0.53,0.14-0.72,0.34
				c-0.07,0.08-0.13,0.17-0.2,0.25c-0.11,0.19-0.17,0.41-0.17,0.63c-0.05,0.42-0.07,0.84-0.06,1.26c0.82-0.11,1.64-0.22,2.46-0.33
				c-0.01-0.06-0.03-0.12-0.04-0.18c0.01,0.11,0.03,0.22,0.04,0.33c-0.02-0.16-0.02-0.31,0-0.47c-0.01,0.11-0.03,0.22-0.04,0.33
				c0.02-0.11,0.04-0.21,0.08-0.32c-0.82-0.11-1.64-0.22-2.46-0.33c-0.02,0.43-0.05,0.86-0.07,1.29c-0.02,0.31,0.15,0.67,0.37,0.88
				c0.22,0.22,0.57,0.38,0.88,0.37c0.32-0.01,0.66-0.12,0.88-0.37c0.23-0.25,0.34-0.54,0.37-0.88c0.03-0.42,0.07-0.84,0.13-1.26
				c-0.01,0.11-0.03,0.22-0.04,0.33c0.06-0.45,0.14-0.9,0.23-1.35c0.07-0.33,0.05-0.67-0.13-0.96c-0.15-0.26-0.45-0.51-0.75-0.57
				c-0.32-0.07-0.68-0.06-0.96,0.13c-0.26,0.17-0.51,0.43-0.57,0.75c-0.2,0.97-0.34,1.95-0.4,2.94c0.83,0,1.67,0,2.5,0
				c0.02-0.43,0.05-0.86,0.07-1.29c0.02-0.3-0.15-0.68-0.37-0.88c-0.21-0.19-0.44-0.31-0.72-0.34c-0.63-0.08-1.18,0.3-1.37,0.9
				c-0.17,0.53-0.17,1.1-0.04,1.64c0.15,0.6,0.78,0.98,1.37,0.9c0.6-0.08,1.1-0.6,1.08-1.23c-0.01-0.42,0.01-0.84,0.06-1.26
				c-0.82,0.11-1.64,0.22-2.46,0.33c0.01,0.03,0.01,0.07,0.02,0.1c-0.01-0.11-0.03-0.22-0.04-0.33c0.04,0.33,0.04,0.66,0,0.98
				c0.01-0.11,0.03-0.22,0.04-0.33c-0.01,0.08-0.03,0.16-0.04,0.24c0.82,0.11,1.64,0.22,2.46,0.33c0.06-0.48,0.08-0.95,0.06-1.43
				c-0.01-0.33-0.13-0.65-0.37-0.88c-0.22-0.22-0.57-0.38-0.88-0.37c-0.68,0.03-1.25,0.55-1.25,1.25c0,0.5,0,0.99,0,1.49
				c0,0.32,0.14,0.66,0.37,0.88c0.22,0.22,0.57,0.38,0.88,0.37c0.32-0.01,0.66-0.12,0.88-0.37c0.23-0.25,0.34-0.54,0.37-0.88
				c0.04-0.47,0.07-0.95,0.11-1.42c0.02-0.29-0.15-0.69-0.37-0.88c-0.21-0.19-0.44-0.31-0.72-0.34c-0.27-0.04-0.56,0-0.8,0.15
				c-0.26,0.16-0.53,0.43-0.57,0.75c-0.1,0.62-0.16,1.24-0.16,1.86c0,0.32,0.14,0.66,0.37,0.88c0.22,0.22,0.57,0.38,0.88,0.37
				c0.32-0.01,0.66-0.12,0.88-0.37c0.23-0.25,0.35-0.54,0.37-0.88c0.03-0.55,0.06-1.09,0.1-1.64c0.02-0.3-0.15-0.68-0.37-0.88
				c-0.21-0.19-0.44-0.31-0.72-0.34c-0.27-0.04-0.56,0-0.8,0.15c-0.26,0.17-0.51,0.43-0.57,0.75c-0.12,0.61-0.18,1.23-0.13,1.85
				c0.03,0.34,0.12,0.64,0.37,0.88c0.22,0.22,0.57,0.38,0.88,0.37c0.32-0.01,0.66-0.12,0.88-0.37c0.22-0.24,0.38-0.55,0.37-0.88
				c-0.02-0.62,0.01-1.25,0.09-1.87c-0.83,0-1.67,0-2.5,0c0,0.59,0,1.19-0.01,1.78c0.83,0,1.67,0,2.5,0
				c-0.01-0.54,0.03-1.08,0.1-1.62c-0.01,0.11-0.03,0.22-0.04,0.33c0-0.03,0.01-0.07,0.01-0.1c0.05-0.17,0.06-0.33,0.02-0.5
				c-0.01-0.17-0.06-0.32-0.15-0.46c-0.15-0.26-0.45-0.51-0.75-0.57c-0.32-0.07-0.68-0.06-0.96,0.13
				C445.82,187.11,445.54,187.38,445.5,187.69L445.5,187.69z"/>
		</g>
	</g>
	<g class="st2">
		<g class="st4">
			<path class="st7" d="M445.72,188.79c-0.04,0.25-0.07,0.5-0.11,0.75c0.8,0,1.61,0,2.41,0c-0.02-0.07-0.03-0.15-0.04-0.22
				c0.01,0.11,0.03,0.22,0.04,0.33c-0.02-0.17-0.02-0.33,0-0.5c-0.83,0-1.67,0-2.5,0c0.01,0.17,0,0.34-0.03,0.51
				c0.01-0.11,0.03-0.22,0.04-0.33c-0.02,0.15-0.05,0.3-0.09,0.45c0.8,0,1.61,0,2.41,0c-0.03-0.07-0.04-0.15-0.05-0.23
				c0.01,0.11,0.03,0.22,0.04,0.33c-0.01-0.1-0.01-0.19,0-0.29c-0.83,0-1.67,0-2.5,0c0,0.18,0,0.35,0,0.53c0.83,0,1.67,0,2.5,0
				c-0.01-0.15-0.01-0.3-0.02-0.44c-0.01-0.11-0.03-0.22-0.04-0.33c-0.04-0.16-0.11-0.3-0.22-0.43c-0.06-0.09-0.13-0.17-0.22-0.22
				c-0.12-0.11-0.26-0.19-0.43-0.22c-0.11-0.01-0.22-0.03-0.33-0.04c-0.11,0.01-0.22,0.03-0.33,0.04c-0.16,0.04-0.3,0.11-0.43,0.22
				c-0.14,0.09-0.24,0.21-0.32,0.35c-0.07,0.12-0.12,0.25-0.16,0.37c-0.01,0.03-0.02,0.07-0.03,0.11c-0.02,0.14-0.05,0.28-0.05,0.42
				c0,0.14,0.03,0.29,0.05,0.43c0.04,0.16,0.11,0.3,0.22,0.43c0.09,0.14,0.21,0.24,0.35,0.32c0.1,0.04,0.2,0.08,0.3,0.13
				c0.17,0.05,0.33,0.06,0.5,0.02c0.11,0,0.22-0.03,0.32-0.09c0.15-0.05,0.29-0.14,0.4-0.26c0.07-0.08,0.13-0.17,0.2-0.25
				c0.11-0.19,0.17-0.41,0.17-0.63c-0.01-0.14-0.01-0.28-0.02-0.42c-0.01-0.11-0.03-0.22-0.04-0.33c-0.04-0.16-0.11-0.3-0.22-0.43
				c-0.06-0.09-0.13-0.17-0.22-0.22c-0.12-0.11-0.26-0.19-0.43-0.22c-0.11-0.01-0.22-0.03-0.33-0.04c-0.11,0.01-0.22,0.03-0.33,0.04
				c-0.16,0.04-0.3,0.11-0.43,0.22c-0.14,0.09-0.24,0.21-0.32,0.35c-0.01,0.02-0.02,0.04-0.03,0.06c-0.05,0.1-0.1,0.21-0.13,0.31
				c0,0.01-0.01,0.03-0.01,0.04c-0.02,0.07-0.03,0.16-0.03,0.22c-0.01,0.08-0.03,0.15-0.03,0.23c-0.01,0.17,0.03,0.33,0.11,0.48
				c0.05,0.15,0.14,0.29,0.26,0.4c0.11,0.12,0.25,0.21,0.4,0.26c0.15,0.08,0.31,0.11,0.48,0.11c0.11-0.01,0.22-0.03,0.33-0.04
				c0.21-0.06,0.4-0.17,0.55-0.32c0.07-0.08,0.13-0.17,0.2-0.25c0.11-0.19,0.17-0.41,0.17-0.63c0-0.15,0-0.3,0-0.44
				c-0.83,0-1.67,0-2.5,0c0,0.2,0,0.41,0,0.61c0.78-0.21,1.55-0.42,2.33-0.63c-0.02-0.03-0.04-0.07-0.06-0.11
				c0.04,0.1,0.08,0.2,0.13,0.3c-0.02-0.04-0.03-0.09-0.04-0.14c0.01,0.11,0.03,0.22,0.04,0.33c-0.01-0.05-0.01-0.09,0-0.14
				c-0.01,0.11-0.03,0.22-0.04,0.33c0-0.03,0.01-0.05,0.02-0.08c-0.82-0.11-1.64-0.22-2.46-0.33c0,0.18,0,0.35,0,0.53
				c0.83,0,1.67,0,2.5,0c0-0.19,0-0.39,0-0.58c-0.83,0-1.67,0-2.5,0c0,0.04,0,0.09,0,0.13c-0.01,0.17,0.03,0.33,0.11,0.48
				c0.05,0.15,0.14,0.29,0.26,0.4c0.11,0.12,0.25,0.21,0.4,0.26c0.15,0.08,0.31,0.11,0.48,0.11c0.11-0.01,0.22-0.03,0.33-0.04
				c0.21-0.06,0.4-0.17,0.55-0.32c0.07-0.08,0.13-0.17,0.2-0.25c0.11-0.19,0.17-0.41,0.17-0.63c0-0.04,0-0.09,0-0.13
				c0.01-0.17-0.03-0.33-0.11-0.48c-0.05-0.15-0.14-0.29-0.26-0.4c-0.11-0.12-0.25-0.21-0.4-0.26c-0.15-0.08-0.31-0.11-0.48-0.11
				c-0.11,0.01-0.22,0.03-0.33,0.04c-0.21,0.06-0.4,0.17-0.55,0.32c-0.07,0.08-0.13,0.17-0.2,0.25c-0.11,0.19-0.17,0.41-0.17,0.63
				c0,0.19,0,0.39,0,0.58c-0.01,0.17,0.03,0.33,0.11,0.48c0.05,0.15,0.14,0.29,0.26,0.4c0.11,0.12,0.25,0.21,0.4,0.26
				c0.15,0.08,0.31,0.11,0.48,0.11c0.11-0.01,0.22-0.03,0.33-0.04c0.21-0.06,0.4-0.17,0.55-0.32c0.07-0.08,0.13-0.17,0.2-0.25
				c0.11-0.19,0.17-0.41,0.17-0.63c0-0.18,0-0.35,0-0.53c0.01-0.17-0.03-0.33-0.11-0.48c-0.05-0.15-0.14-0.29-0.26-0.4
				c-0.08-0.07-0.17-0.13-0.25-0.2c-0.14-0.09-0.3-0.14-0.46-0.15c-0.11-0.03-0.22-0.03-0.33,0c-0.17,0.01-0.32,0.06-0.46,0.15
				c-0.08,0.07-0.17,0.13-0.25,0.2c-0.15,0.16-0.26,0.34-0.32,0.55c-0.04,0.15-0.06,0.3-0.06,0.45c0,0.02,0,0.04,0,0.06
				c0.01,0.13,0.03,0.26,0.05,0.39c0.01,0.04,0.02,0.08,0.03,0.12c0.04,0.12,0.09,0.24,0.15,0.35c0.01,0.02,0.02,0.04,0.04,0.06
				c0.07,0.08,0.13,0.17,0.2,0.25c0.11,0.12,0.25,0.21,0.4,0.26c0.1,0.06,0.2,0.08,0.32,0.09c0.17,0.04,0.33,0.03,0.5-0.02
				c0.1-0.04,0.2-0.08,0.3-0.13c0.08-0.07,0.17-0.13,0.25-0.2c0.12-0.11,0.21-0.25,0.26-0.4c0.08-0.15,0.11-0.31,0.11-0.48
				c0-0.2,0-0.41,0-0.61c0.01-0.17-0.03-0.33-0.11-0.48c-0.05-0.15-0.14-0.29-0.26-0.4c-0.11-0.12-0.25-0.21-0.4-0.26
				c-0.15-0.08-0.31-0.11-0.48-0.11c-0.11,0.01-0.22,0.03-0.33,0.04c-0.21,0.06-0.4,0.17-0.55,0.32c-0.07,0.08-0.13,0.17-0.2,0.25
				c-0.11,0.19-0.17,0.41-0.17,0.63c0,0.15,0,0.3,0,0.44c0.83,0,1.67,0,2.5,0c0-0.02,0-0.04,0-0.07c-0.01,0.11-0.03,0.22-0.04,0.33
				c0.01-0.03,0.01-0.06,0.03-0.1c-0.04,0.1-0.08,0.2-0.13,0.3c0.01-0.03,0.02-0.05,0.04-0.07c-0.78-0.21-1.55-0.42-2.33-0.63
				c0.01,0.14,0.01,0.28,0.02,0.42c0.82-0.11,1.64-0.22,2.46-0.33c0-0.01,0-0.01,0-0.02c0.01,0.11,0.03,0.22,0.04,0.33
				c-0.01-0.05-0.01-0.09,0-0.14c-0.01,0.11-0.03,0.22-0.04,0.33c0.01-0.05,0.02-0.1,0.04-0.15c-0.04,0.1-0.08,0.2-0.13,0.3
				c0.01-0.02,0.02-0.04,0.03-0.06c-0.78-0.21-1.55-0.42-2.33-0.63c0.01,0.15,0.01,0.3,0.02,0.44c-0.01,0.17,0.03,0.33,0.11,0.48
				c0.05,0.15,0.14,0.29,0.26,0.4c0.11,0.12,0.25,0.21,0.4,0.26c0.15,0.08,0.31,0.11,0.48,0.11c0.11-0.01,0.22-0.03,0.33-0.04
				c0.21-0.06,0.4-0.17,0.55-0.32c0.07-0.08,0.13-0.17,0.2-0.25c0.11-0.19,0.17-0.41,0.17-0.63c0-0.18,0-0.35,0-0.53
				c0.01-0.17-0.03-0.33-0.11-0.48c-0.05-0.15-0.14-0.29-0.26-0.4c-0.11-0.12-0.25-0.21-0.4-0.26c-0.15-0.08-0.31-0.11-0.48-0.11
				c-0.11,0.01-0.22,0.03-0.33,0.04c-0.21,0.06-0.4,0.17-0.55,0.32c-0.07,0.08-0.13,0.17-0.2,0.25c-0.11,0.19-0.17,0.41-0.17,0.63
				c-0.01,0.09-0.01,0.18,0,0.27c0.02,0.19,0.04,0.39,0.1,0.58c0.04,0.1,0.08,0.2,0.13,0.3c0.08,0.15,0.19,0.26,0.32,0.35
				c0.08,0.08,0.17,0.13,0.28,0.16c0.15,0.08,0.31,0.11,0.48,0.11c0.11-0.01,0.22-0.03,0.33-0.04c0.1-0.04,0.2-0.08,0.3-0.13
				c0.15-0.08,0.26-0.19,0.35-0.32c0.11-0.12,0.19-0.26,0.22-0.43c0.08-0.26,0.11-0.53,0.14-0.8c0.02-0.16,0.03-0.33,0.02-0.49
				c0.01-0.17-0.03-0.33-0.11-0.48c-0.05-0.15-0.14-0.29-0.26-0.4c-0.11-0.12-0.25-0.21-0.4-0.26c-0.15-0.08-0.31-0.11-0.48-0.11
				c-0.11,0.01-0.22,0.03-0.33,0.04c-0.21,0.06-0.4,0.17-0.55,0.32c-0.07,0.08-0.13,0.17-0.2,0.25c-0.11,0.19-0.17,0.41-0.17,0.63
				c-0.01,0.12-0.02,0.25-0.01,0.37c0.02,0.23,0.05,0.46,0.1,0.68c0.04,0.1,0.08,0.2,0.13,0.3c0.08,0.15,0.19,0.26,0.32,0.35
				c0.08,0.08,0.17,0.13,0.28,0.16c0.15,0.08,0.31,0.11,0.48,0.11c0.11-0.01,0.22-0.03,0.33-0.04c0.1-0.04,0.2-0.08,0.3-0.13
				c0.15-0.08,0.26-0.19,0.35-0.32c0.11-0.12,0.19-0.26,0.22-0.43c0.04-0.25,0.07-0.5,0.11-0.75c0.05-0.17,0.06-0.33,0.02-0.5
				c-0.01-0.17-0.06-0.32-0.15-0.46c-0.08-0.15-0.19-0.26-0.32-0.35c-0.12-0.11-0.26-0.19-0.43-0.22c-0.11-0.01-0.22-0.03-0.33-0.04
				c-0.23,0-0.44,0.06-0.63,0.17c-0.08,0.07-0.17,0.13-0.25,0.2C445.88,188.4,445.78,188.58,445.72,188.79L445.72,188.79z"/>
		</g>
	</g>
	<line class="st11" x1="494.64" y1="150.53" x2="494.56" y2="152.77"/>
	<path class="st12" d="M541.65,157.36c0,0-12.26-4.58-24.51-4.58c-12.23,0-24.46,4.58-24.46,4.58"/>
	<g class="st2">
		<g class="st4">
			<path class="st7" d="M481.06,151.08c0.48,1.69,1.43,3.27,2.21,4.83c0.75,1.5,1.51,3.01,2.26,4.51c0.59,1.17,2.34,1.6,3.42,0.9
				c1.2-0.77,1.52-2.17,0.9-3.42c-0.73-1.45-1.46-2.91-2.18-4.36c-0.36-0.73-0.73-1.45-1.09-2.18c-0.17-0.34-0.33-0.68-0.5-1.02
				c-0.21-0.44,0.17,0.51,0,0.01c-0.07-0.2-0.14-0.4-0.2-0.61c-0.36-1.26-1.78-2.16-3.08-1.75
				C481.52,148.42,480.67,149.74,481.06,151.08L481.06,151.08z"/>
		</g>
	</g>
	<g class="st2">
		<g class="st4">
			<path class="st7" d="M487.54,165.24c0.82,1.01,1.69,1.96,2.63,2.86c1.18-1.18,2.36-2.36,3.54-3.54c-0.51-0.4-1.02-0.79-1.53-1.19
				c-0.23-0.24-0.49-0.42-0.8-0.52c-0.3-0.16-0.62-0.23-0.96-0.22c-0.22,0.03-0.44,0.06-0.66,0.09c-0.33,0.08-0.61,0.23-0.85,0.45
				c-0.19,0.11-0.34,0.26-0.45,0.45c-0.22,0.24-0.37,0.52-0.45,0.85c-0.14,0.64-0.12,1.36,0.25,1.93c0.77,1.17,1.75,2.15,2.96,2.86
				c0.2,0.08,0.4,0.17,0.6,0.25c0.33,0.1,0.66,0.12,1,0.04c0.23,0,0.44-0.06,0.63-0.17c0.31-0.1,0.58-0.27,0.8-0.52
				c0.29-0.32,0.51-0.69,0.64-1.1c0.1-0.33,0.12-0.66,0.04-1c-0.02-0.33-0.11-0.64-0.3-0.93c-0.32-0.45-0.66-0.9-1.08-1.27
				c-0.41-0.37-0.86-0.72-1.35-0.99c-0.2-0.08-0.4-0.17-0.6-0.25c-0.22-0.03-0.44-0.06-0.66-0.09c-0.22,0.03-0.44,0.06-0.66,0.09
				c-0.33,0.08-0.61,0.23-0.85,0.45c-0.19,0.11-0.34,0.26-0.45,0.45c-0.15,0.16-0.26,0.34-0.32,0.55c-0.11,0.19-0.17,0.41-0.17,0.63
				c-0.07,0.33-0.06,0.66,0.04,1c0.26,0.66,0.34,0.81,0.78,1.36c0.21,0.26,0.49,0.44,0.75,0.63c0.29,0.18,0.6,0.28,0.93,0.3
				c0.33,0.07,0.66,0.06,1-0.04c0.2-0.08,0.4-0.17,0.6-0.25c0.29-0.16,0.53-0.37,0.7-0.64c0.15-0.16,0.26-0.34,0.32-0.55
				c0.16-0.3,0.23-0.62,0.22-0.96c-0.03-0.67-0.26-1.28-0.73-1.77c-0.81-0.84-1.76-1.57-2.78-2.13c-0.58-0.32-1.29-0.43-1.93-0.25
				c-0.58,0.16-1.21,0.61-1.49,1.15c-0.31,0.58-0.46,1.28-0.25,1.93c0.2,0.61,0.57,1.17,1.15,1.49c0.43,0.24,0.84,0.51,1.23,0.8
				c-0.17-0.13-0.34-0.26-0.51-0.39c0.37,0.29,0.72,0.6,1.04,0.94c1.01-1.31,2.02-2.62,3.03-3.93c-0.02-0.01-0.03-0.02-0.05-0.03
				c0.17,0.13,0.34,0.26,0.51,0.39c-0.08-0.06-0.14-0.13-0.2-0.2c0.13,0.17,0.26,0.34,0.39,0.51c-0.04-0.06-0.08-0.13-0.11-0.2
				c0.08,0.2,0.17,0.4,0.25,0.6c-0.01-0.02-0.01-0.04-0.02-0.05c-1.22,0.94-2.45,1.88-3.67,2.82c0.21,0.12,0.41,0.25,0.61,0.4
				c-0.17-0.13-0.34-0.26-0.51-0.39c0.3,0.24,0.57,0.51,0.81,0.81c-0.13-0.17-0.26-0.34-0.39-0.51c0.04,0.05,0.07,0.1,0.11,0.15
				c1.14-1.14,2.28-2.28,3.42-3.42c-0.22-0.13-0.44-0.28-0.65-0.43c0.17,0.13,0.34,0.26,0.51,0.39c-0.43-0.33-0.81-0.71-1.14-1.14
				c0.13,0.17,0.26,0.34,0.39,0.51c-0.1-0.13-0.19-0.26-0.28-0.39c-1.31,1.01-2.62,2.02-3.93,3.03c0.51,0.4,1.02,0.79,1.53,1.19
				c0.23,0.24,0.49,0.42,0.8,0.52c0.3,0.16,0.62,0.23,0.96,0.22c0.61,0,1.35-0.27,1.77-0.73c0.44-0.48,0.76-1.1,0.73-1.77
				c-0.03-0.65-0.25-1.3-0.73-1.77c-0.94-0.9-1.81-1.85-2.63-2.86c-0.23-0.24-0.49-0.42-0.8-0.52c-0.3-0.16-0.62-0.23-0.96-0.22
				c-0.61,0-1.35,0.27-1.77,0.73c-0.44,0.48-0.76,1.1-0.73,1.77c0.03,0.22,0.06,0.44,0.09,0.66
				C487.02,164.56,487.23,164.93,487.54,165.24L487.54,165.24z"/>
		</g>
	</g>
	<g class="st2">
		<g class="st4">
			<path class="st7" d="M484.91,150.75c-0.11-0.38-0.21-0.76-0.32-1.14c-0.8,0.22-1.61,0.44-2.41,0.66c0.69,2.1,1.69,4.07,2.73,6.01
				c1.02,1.92,2.11,3.79,3.44,5.5c2.51,3.23,5.92,5.69,10.06,6.17c0.67,0.08,1.25-0.63,1.25-1.25c0-0.74-0.58-1.17-1.25-1.25
				c-3.51-0.4-6.44-2.9-8.45-5.65c-1.1-1.51-2.02-3.13-2.9-4.78c-0.93-1.76-1.85-3.53-2.47-5.42c-0.5-1.52-2.84-0.9-2.41,0.66
				c0.11,0.38,0.21,0.76,0.32,1.14C482.93,152.97,485.34,152.31,484.91,150.75L484.91,150.75z"/>
		</g>
	</g>
	<g class="st2">
		<g class="st4">
			<path class="st7" d="M483.35,149.61c0.11,0.62,0.22,1.25,0.34,1.87c0.27,1.48,2.34,0.97,2.46-0.33c0.03-0.37,0.07-0.73,0.1-1.1
				c-0.82,0.11-1.64,0.22-2.46,0.33c0.07,0.45,0.15,0.9,0.22,1.35c0.22,1.38,2.6,1.07,2.46-0.33c-0.03-0.3-0.06-0.6-0.1-0.9
				c-0.83,0-1.67,0-2.5,0c0.06,0.48,0.11,0.95,0.17,1.43c0.82-0.11,1.64-0.22,2.46-0.33c-0.2-1.2-0.43-2.4-0.68-3.6
				c-0.29-1.35-2.64-1.08-2.46,0.33c0.1,0.78,0.21,1.57,0.31,2.35c0.2,1.54,2.58,1.65,2.5,0c-0.18-3.5-1.5-6.72-3.83-9.34
				c-0.97-1.09-2.61,0.3-1.96,1.51c2.66,4.99,3.63,10.81,6.98,15.44c3.12,4.32,8.1,6.82,13.46,6.22c1.57-0.18,1.61-2.65,0-2.5
				c-3.32,0.31-6.57-0.26-9.55-1.78c-1.25-0.64-2.51,0.9-1.51,1.96c2.33,2.48,5.47,3.88,8.85,4.05c1.61,0.08,1.6-2.41,0-2.5
				c-3.79-0.22-6.98-3.98-9.01-6.92c-2.2-3.19-3.6-6.81-4.16-10.65c-0.8,0.22-1.61,0.44-2.41,0.66c0.68,2.44,1.37,4.87,2.05,7.31
				c0.76-0.32,1.52-0.64,2.28-0.96c-0.79-1.86-1.4-3.8-1.86-5.77c-0.37-1.57-2.75-0.9-2.41,0.66c0.96,4.47,2.81,8.94,6.16,12.15
				c3.25,3.11,7.68,4.75,12.16,4.05c1.38-0.22,1.07-2.57-0.33-2.46c-1.79,0.14-3.52-0.09-5.29-0.39c-0.11,0.82-0.22,1.64-0.33,2.46
				c3.7,0.01,7.4,0.07,11.1,0.18c1.61,0.05,1.61-2.45,0-2.5c-3.7-0.11-7.4-0.17-11.1-0.18c-1.36-0.01-1.76,2.22-0.33,2.46
				c1.97,0.33,3.94,0.64,5.95,0.48c-0.11-0.82-0.22-1.64-0.33-2.46c-3.84,0.61-7.69-1.21-10.28-3.97
				c-2.71-2.88-4.14-6.67-4.96-10.48c-0.8,0.22-1.61,0.44-2.41,0.66c0.51,2.19,1.23,4.29,2.11,6.36c0.56,1.32,2.66,0.37,2.28-0.96
				c-0.68-2.44-1.37-4.87-2.05-7.31c-0.45-1.59-2.64-0.88-2.41,0.66c0.64,4.41,2.41,8.63,5.1,12.19c1.32,1.74,2.81,3.34,4.52,4.71
				c1.87,1.5,3.53,2.36,5.96,2.51c0-0.83,0-1.67,0-2.5c-2.74-0.14-5.21-1.33-7.09-3.32c-0.5,0.65-1.01,1.31-1.51,1.96
				c3.36,1.7,7.06,2.46,10.81,2.12c0-0.83,0-1.67,0-2.5c-5.16,0.57-9.58-1.99-12.21-6.36c-2.65-4.4-3.66-9.54-6.07-14.06
				c-0.65,0.5-1.31,1.01-1.96,1.51c1.87,2.11,2.95,4.75,3.1,7.57c0.83,0,1.67,0,2.5,0c-0.1-0.78-0.21-1.57-0.31-2.35
				c-0.82,0.11-1.64,0.22-2.46,0.33c0.25,1.19,0.48,2.39,0.68,3.6c0.23,1.37,2.62,1.07,2.46-0.33c-0.06-0.48-0.11-0.95-0.17-1.43
				c-0.18-1.57-2.67-1.61-2.5,0c0.03,0.3,0.06,0.6,0.1,0.9c0.82-0.11,1.64-0.22,2.46-0.33c-0.07-0.45-0.15-0.9-0.22-1.35
				c-0.24-1.48-2.34-0.97-2.46,0.33c-0.03,0.37-0.07,0.73-0.1,1.1c0.82-0.11,1.64-0.22,2.46-0.33c-0.11-0.62-0.22-1.25-0.34-1.87
				C485.48,147.37,483.07,148.04,483.35,149.61L483.35,149.61z"/>
		</g>
	</g>
	<g class="st2">
		<g class="st4">
			<path class="st7" d="M477.79,162.04c0.09,0.13,0.17,0.25,0.26,0.38c0.08,0.15,0.19,0.26,0.32,0.35c0.12,0.11,0.26,0.19,0.43,0.22
				c0.17,0.05,0.33,0.06,0.5,0.02c0.17-0.01,0.32-0.06,0.46-0.15c0.08-0.07,0.17-0.13,0.25-0.2c0.15-0.16,0.26-0.34,0.32-0.55
				c0.01-0.11,0.03-0.22,0.04-0.33c0-0.23-0.06-0.44-0.17-0.63c-0.09-0.13-0.17-0.25-0.26-0.38c-0.08-0.15-0.19-0.26-0.32-0.35
				c-0.12-0.11-0.26-0.19-0.43-0.22c-0.17-0.05-0.33-0.06-0.5-0.02c-0.17,0.01-0.32,0.06-0.46,0.15c-0.08,0.07-0.17,0.13-0.25,0.2
				c-0.15,0.16-0.26,0.34-0.32,0.55c-0.01,0.11-0.03,0.22-0.04,0.33C477.62,161.64,477.68,161.85,477.79,162.04L477.79,162.04z"/>
		</g>
	</g>
	<g class="st2">
		<g class="st4">
			<path class="st7" d="M494.49,161.13c-0.91-0.36-1.83-0.73-2.74-1.09c-1.31-0.52-2.21,1.64-0.96,2.28
				c3.19,1.63,6.72,2.13,10.24,1.45c-0.22-0.8-0.44-1.61-0.66-2.41c-3.14,0.92-6.6,0.18-9.03-2.02c-0.5,0.65-1.01,1.31-1.51,1.96
				c2.5,1.68,5.22,3.34,8.35,3.17c1.62-0.09,1.6-2.38,0-2.5c-2.29-0.17-4.44-0.91-6.38-2.13c-0.42,0.72-0.84,1.44-1.26,2.16
				c2.33,1.07,4.75,1.72,7.3,1.97c0-0.83,0-1.67,0-2.5c-2.51,0.12-4.94-0.68-6.83-2.34c-0.59,0.59-1.18,1.18-1.77,1.77
				c0.32,0.25,0.51,0.46,0.69,0.82c0.57-0.57,1.14-1.14,1.71-1.71c-2.8-2.16-4.94-5.15-6.12-8.47c-0.76,0.32-1.52,0.64-2.28,0.96
				c0.67,1.27,1.34,2.55,2,3.82c0.72-0.42,1.44-0.84,2.16-1.26c-1.04-1.59-1.89-3.27-2.53-5.07c-0.76,0.32-1.52,0.64-2.28,0.96
				c0.78,1.34,1.48,2.73,2.07,4.17c0.76-0.32,1.52-0.64,2.28-0.96c-0.72-1.27-1.21-2.59-1.5-4.02c-0.76,0.32-1.52,0.64-2.28,0.96
				c0.78,1.13,1.35,2.31,1.72,3.63c0.76-0.32,1.52-0.64,2.28-0.96c-1.51-2.48-2.77-5.09-3.74-7.83c-0.76,0.32-1.52,0.64-2.28,0.96
				c1.28,2.57,2.39,5.2,3.33,7.91c0.52,1.51,2.91,0.88,2.41-0.66c-0.38-1.17-0.76-2.34-1.14-3.52c-0.76,0.32-1.52,0.64-2.28,0.96
				c0.55,0.93,0.97,1.89,1.29,2.92c0.8-0.22,1.61-0.44,2.41-0.66c-0.32-0.76-0.63-1.52-0.95-2.28c-0.76,0.32-1.52,0.64-2.28,0.96
				c0.35,0.78,0.69,1.55,1.04,2.33c0.58,1.29,2.71,0.37,2.28-0.96c-0.25-0.8-0.51-1.6-0.76-2.39c-0.76,0.32-1.52,0.64-2.28,0.96
				c0.42,0.65,0.64,1.26,0.77,2.02c0.8-0.22,1.61-0.44,2.41-0.66c-0.33-0.9-0.67-1.79-1-2.69c-0.76,0.32-1.52,0.64-2.28,0.96
				c0.38,0.88,0.75,1.76,1.13,2.64c0.72-0.42,1.44-0.84,2.16-1.26c-0.46-0.79-0.8-1.6-1.06-2.47c-0.76,0.32-1.52,0.64-2.28,0.96
				c0.36,0.75,0.6,1.52,0.77,2.34c0.8-0.22,1.61-0.44,2.41-0.66c-0.37-1.02-0.74-2.03-1.11-3.05c-0.55-1.5-2.96-0.85-2.41,0.66
				c0.37,1.02,0.74,2.03,1.11,3.05c0.55,1.51,2.74,0.92,2.41-0.66c-0.21-1.03-0.57-1.99-1.03-2.94c-0.62-1.28-2.68-0.38-2.28,0.96
				c0.32,1.07,0.75,2.1,1.31,3.07c0.83,1.43,2.77,0.18,2.16-1.26c-0.38-0.88-0.75-1.76-1.13-2.64c-0.55-1.29-2.78-0.36-2.28,0.96
				c0.33,0.9,0.67,1.79,1,2.69c0.57,1.52,2.67,0.92,2.41-0.66c-0.15-0.94-0.5-1.82-1.02-2.62c-0.74-1.14-2.73-0.44-2.28,0.96
				c0.25,0.8,0.51,1.6,0.76,2.39c0.76-0.32,1.52-0.64,2.28-0.96c-0.35-0.78-0.69-1.55-1.04-2.33c-0.57-1.28-2.83-0.35-2.28,0.96
				c0.32,0.76,0.63,1.52,0.95,2.28c0.6,1.44,2.9,0.92,2.41-0.66c-0.38-1.23-0.9-2.41-1.55-3.52c-0.7-1.2-2.73-0.41-2.28,0.96
				c0.38,1.17,0.76,2.34,1.14,3.52c0.8-0.22,1.61-0.44,2.41-0.66c-1.01-2.91-2.2-5.75-3.58-8.51c-0.62-1.25-2.76-0.38-2.28,0.96
				c1.05,2.94,2.37,5.76,3.99,8.43c0.73,1.2,2.67,0.42,2.28-0.96c-0.42-1.51-1.07-2.94-1.97-4.23c-0.81-1.17-2.58-0.46-2.28,0.96
				c0.34,1.63,0.93,3.17,1.75,4.61c0.68,1.19,2.83,0.38,2.28-0.96c-0.67-1.64-1.43-3.24-2.32-4.77c-0.69-1.19-2.77-0.41-2.28,0.96
				c0.7,2,1.62,3.89,2.78,5.66c0.88,1.35,2.91,0.17,2.16-1.26c-0.67-1.27-1.34-2.55-2-3.82c-0.65-1.24-2.76-0.38-2.28,0.96
				c1.42,4,3.91,7.38,7.27,9.96c1.08,0.83,2.21-0.72,1.71-1.71c-0.26-0.52-0.62-0.97-1.08-1.33c-1.23-0.96-3,0.68-1.77,1.77
				c2.38,2.09,5.42,3.22,8.59,3.08c1.63-0.07,1.58-2.35,0-2.5c-2.08-0.2-4.14-0.76-6.04-1.63c-1.44-0.66-2.65,1.29-1.26,2.16
				c2.32,1.45,4.92,2.27,7.64,2.47c0-0.83,0-1.67,0-2.5c-2.68,0.15-4.96-1.4-7.08-2.83c-1.17-0.79-2.57,1.01-1.51,1.96
				c3.09,2.8,7.45,3.85,11.46,2.67c1.56-0.46,0.9-2.71-0.66-2.41c-2.82,0.54-5.75,0.11-8.31-1.2c-0.32,0.76-0.64,1.52-0.96,2.28
				c0.91,0.36,1.83,0.73,2.74,1.09c0.63,0.25,1.37-0.28,1.54-0.87C495.57,161.96,495.12,161.38,494.49,161.13L494.49,161.13z"/>
		</g>
	</g>
	<g class="st2">
		<g class="st4">
			<path class="st7" d="M706.6,130.38c1.61,0,1.61-2.5,0-2.5C704.99,127.88,704.98,130.38,706.6,130.38L706.6,130.38z"/>
		</g>
	</g>
	<path class="st1" d="M471.7,288.11"/>
</g>
<g id="Layer_6">
	<path d="M615.27,201.98h-21.31c-1.2,0-2.17,0.97-2.17,2.17v30.74c0,2.13,1.72,3.85,3.85,3.85h19.63c1.2,0,2.17-0.97,2.17-2.17
		v-32.42C617.44,202.95,616.47,201.98,615.27,201.98z"/>
	<path class="st10" d="M614.89,182h-20.55c-1.41,0-2.55,1.14-2.55,2.55v11.84c0,1.43,1.16,2.59,2.59,2.59h20.52
		c1.41,0,2.55-1.14,2.55-2.55v-11.87C617.44,183.15,616.3,182,614.89,182z"/>
	<path class="st10" d="M442.79,183.23h-21.31c-1.2,0-2.17,0.97-2.17,2.17v11.58c0,1.1,0.89,1.99,1.99,1.99h21.49
		c1.2,0,2.17-0.97,2.17-2.17v-11.4C444.96,184.21,443.99,183.23,442.79,183.23z"/>
	<path d="M442.79,201.98h-21.31c-1.2,0-2.17,0.97-2.17,2.17v16.42c0,2.13,1.72,3.85,3.85,3.85h19.63c1.2,0,2.17-0.97,2.17-2.17
		v-18.09C444.96,202.95,443.99,201.98,442.79,201.98z"/>
</g>
<g id="Layer_8">
</g>
<g id="Layer_7">
	<circle class="st13" cx="454.03" cy="149.43" r="16.98"/>
	<circle class="st13" cx="581.37" cy="149.43" r="16.98"/>
</g>
</svg>
